<?xml version="1.0" encoding="UTF-8" standalone="no"?>
<!-- Created with Inkscape (http://www.inkscape.org/) -->

<svg
   xmlns:dc="http://purl.org/dc/elements/1.1/"
   xmlns:cc="http://creativecommons.org/ns#"
   xmlns:rdf="http://www.w3.org/1999/02/22-rdf-syntax-ns#"
   xmlns:svg="http://www.w3.org/2000/svg"
   xmlns="http://www.w3.org/2000/svg"
   xmlns:sodipodi="http://sodipodi.sourceforge.net/DTD/sodipodi-0.dtd"
   xmlns:inkscape="http://www.inkscape.org/namespaces/inkscape"
   width="75.650848mm"
   height="73.187485mm"
   viewBox="0 0 75.650849 73.187485"
   version="1.1"
   id="svg8"
   sodipodi:docname="MadeInOregon5.svg"
   inkscape:version="0.92.5 (2060ec1f9f, 2020-04-08)">
  <defs
     id="defs2" />
  <sodipodi:namedview
     id="base"
     pagecolor="#ffffff"
     bordercolor="#666666"
     borderopacity="1.0"
     inkscape:pageopacity="0.0"
     inkscape:pageshadow="2"
     inkscape:zoom="5.6"
     inkscape:cx="161.70029"
     inkscape:cy="205.17002"
     inkscape:document-units="mm"
     inkscape:current-layer="layer1"
     showgrid="false"
     inkscape:window-width="1920"
     inkscape:window-height="1017"
     inkscape:window-x="-8"
     inkscape:window-y="-8"
     inkscape:window-maximized="1" />
  <metadata
     id="metadata5">
    <rdf:RDF>
      <cc:Work
         rdf:about="">
        <dc:format>image/svg+xml</dc:format>
        <dc:type
           rdf:resource="http://purl.org/dc/dcmitype/StillImage" />
        <dc:title></dc:title>
      </cc:Work>
    </rdf:RDF>
  </metadata>
  <g
     inkscape:label="Layer 1"
     inkscape:groupmode="layer"
     id="layer1"
     transform="translate(161.24436,173.69654)">
    <path
       style="fill:#000000;stroke-width:0.26458332"
       d="m -157.00147,-100.66481 c -1.06373,-0.16593 -1.63427,-0.43099 -2.24732,-1.04404 -0.79072,-0.79072 -0.82752,-0.9286 -0.97747,-3.66246 -0.0857,-1.56245 -0.35303,-3.43612 -0.59408,-4.16373 -0.59908,-1.80836 -0.56098,-4.03308 0.0993,-5.79781 0.31934,-0.8535 0.63408,-2.58651 0.76357,-4.20424 0.19689,-2.45996 0.33587,-2.98557 1.3088,-4.94986 0.91551,-1.84835 1.08852,-2.45395 1.08852,-3.81017 0,-0.88688 0.23895,-2.44558 0.531,-3.46376 1.0504,-3.66209 2.02679,-11.22084 1.73427,-13.42594 -0.13972,-1.05326 -0.082,-1.42175 0.28617,-1.82863 0.40839,-0.45127 0.42921,-0.73125 0.18202,-2.44714 -0.16194,-1.12403 -0.19001,-2.48024 -0.0669,-3.23001 0.11675,-0.71084 0.21937,-1.90294 0.22805,-2.6491 0.009,-0.7504 0.16356,-1.47427 0.3465,-1.61982 0.18267,-0.14534 1.41883,-0.22818 2.76131,-0.18503 1.90588,0.0613 2.59129,0.19098 3.175,0.60097 0.40943,0.28757 1.38455,0.59056 2.16694,0.6733 0.78239,0.0827 1.71259,0.3405 2.06711,0.57279 0.99235,0.65021 2.13411,2.65958 2.33303,4.10586 0.0986,0.71714 0.4403,1.69213 0.75926,2.16666 0.52454,0.78035 0.72197,0.87027 2.06686,0.94136 1.13006,0.0597 1.8899,-0.0879 3.16595,-0.61496 1.88072,-0.77686 3.65834,-0.88266 6.67344,-0.39719 1.62823,0.26217 1.99761,0.23365 3.51504,-0.27131 1.35043,-0.4494 1.77451,-0.49879 2.08318,-0.24262 0.50958,0.42291 0.49087,1.02708 -0.0503,1.62509 -0.51675,0.571 -0.14606,0.64342 0.57914,0.11314 0.49748,-0.36377 0.49595,-0.3973 -0.0817,-1.79105 -0.32379,-0.78119 -0.5887,-1.61509 -0.5887,-1.85311 0,-0.23802 -0.53578,-0.74675 -1.19063,-1.13051 -0.95087,-0.55725 -1.19062,-0.84349 -1.19062,-1.42148 0,-0.92327 0.67846,-1.89981 1.3199,-1.89981 0.27288,0 0.76157,0.38696 1.08597,0.8599 0.71486,1.04218 1.5636,1.77211 2.06983,1.78005 0.20606,0.003 1.75387,-0.63551 3.43958,-1.41944 1.68571,-0.78393 3.60071,-1.63927 4.25555,-1.90076 0.65485,-0.26149 1.28642,-0.55528 1.40349,-0.65285 0.11708,-0.0976 0.0508,-0.81981 -0.1473,-1.60497 -0.34776,-1.37836 -0.39384,-1.43038 -1.33735,-1.50967 -0.81119,-0.0682 -0.97717,-0.18277 -0.97717,-0.67469 0,-0.32591 0.14287,-0.73544 0.3175,-0.91006 0.38768,-0.38769 0.0796,-0.39888 -1.64042,-0.0596 -2.7491,0.54224 -5.15922,-1.04254 -6.32462,-4.15878 -0.62991,-1.68437 -0.60461,-2.44912 0.081,-2.44912 0.22616,0 0.42248,-0.30306 0.47133,-0.7276 0.0602,-0.52331 0.2323,-0.72761 0.61289,-0.72761 0.464,0 0.54825,0.22806 0.68416,1.85209 0.17189,2.05399 1.04331,4.44043 1.23183,3.37344 0.15751,-0.89146 0.96781,-0.73938 1.40969,0.26458 0.35204,0.7998 0.4659,0.85876 1.62947,0.84363 0.68804,-0.009 1.3219,-0.0872 1.40857,-0.17385 0.0867,-0.0867 -0.0298,-0.51992 -0.2588,-0.96278 -0.22901,-0.44286 -0.41638,-0.98971 -0.41638,-1.21522 0,-0.53946 0.75875,-0.52369 1.36886,0.0284 0.46494,0.42077 0.47786,0.38606 0.3199,-0.85989 -0.21004,-1.6569 -0.6351,-2.32682 -1.73441,-2.73351 -2.3049,-0.85269 -3.12935,-1.34501 -3.12935,-1.8687 0,-0.65556 0.70995,-0.6923 2.34887,-0.12155 0.63703,0.22185 1.22609,0.33551 1.30901,0.25259 0.0829,-0.0829 -0.0582,-0.50453 -0.31363,-0.93691 -0.51444,-0.87087 -0.39383,-1.31424 0.35751,-1.31424 0.64401,0 1.49517,1.21033 1.72947,2.45926 0.23333,1.24375 0.58093,1.47202 0.91271,0.59937 0.15929,-0.41895 0.46192,-0.67738 0.79326,-0.67738 0.44297,0 0.53541,0.17178 0.53397,0.99219 -0.001,0.5457 -0.2383,1.34938 -0.52742,1.78594 -0.63876,0.96449 -0.75497,2.76574 -0.14583,2.26019 0.21084,-0.17498 0.51773,-0.72534 0.68198,-1.22302 0.20085,-0.60858 0.46354,-0.90488 0.80224,-0.90488 0.63181,0 0.90201,0.96302 0.53847,1.91919 -0.1711,0.45005 -0.17645,0.7652 -0.0147,0.86518 0.39066,0.24145 0.30284,0.95698 -0.1834,1.49428 -0.41721,0.461 -0.38846,0.48385 0.60853,0.48385 0.57554,0 1.17304,0.12661 1.32777,0.28135 0.15474,0.15474 0.85027,0.3631 1.5456,0.46302 2.28539,0.32841 2.30741,1.53994 0.0479,2.63417 -0.68189,0.33023 -1.23981,0.73684 -1.23981,0.90357 0,0.16674 0.70414,1.03645 1.56476,1.93269 1.08991,1.13503 1.65812,1.97626 1.87242,2.77211 l 0.30766,1.14257 2.49079,-0.1486 c 1.39076,-0.083 2.55649,-0.0423 2.63957,0.0921 0.08183,0.13241 0.469876,0.0162 0.862316,-0.25828 0.488807,-0.34187 1.604323,-0.59872 3.541996,-0.81556 2.603333,-0.29133 2.893774,-0.27795 3.648914,0.16812 0.456742,0.26981 0.881242,0.77906 0.957601,1.14878 0.239358,1.15898 0.514633,1.42638 1.80799,1.75632 1.713304,0.43707 2.530983,1.24422 2.530983,2.49839 0,1.51425 -1.225727,6.95561 -1.836525,8.15287 -0.299599,0.58726 -0.544725,1.33537 -0.544725,1.66245 0,0.32708 -0.397663,1.01644 -0.883697,1.53189 -0.689867,0.73164 -0.949103,1.30855 -1.181894,2.63024 -0.335555,1.90515 -0.271097,2.14342 0.579877,2.14342 0.329848,0 0.85177,0.26829 1.159827,0.5962 0.516525,0.54982 0.54219,0.75054 0.329832,2.57969 -0.12665,1.09092 -0.433559,2.69786 -0.682019,3.57098 -0.412096,1.44817 -0.425032,2.23773 -0.147383,8.99584 0.167402,4.07458 0.438965,8.98032 0.60348,10.90164 0.364217,4.25359 0.205483,4.68673 -1.817367,4.959 -3.847444,0.51787 -64.106966,1.13183 -66.987376,0.68251 z m 53.41631,-1.03145 c 8.209408,-0.15362 13.642015,-0.3588 14.089063,-0.53212 0.862256,-0.33431 0.834761,0.30962 0.330714,-7.74509 -0.585756,-9.36044 -0.611902,-15.64838 -0.07189,-17.28865 0.239537,-0.72761 0.472776,-2.02303 0.518302,-2.87872 0.08792,-1.65252 0.09719,-1.63828 -1.474126,-2.26291 l -0.763143,-0.30337 0.183013,-2.01961 c 0.199908,-2.2061 0.450934,-2.86095 1.375457,-3.58819 0.341249,-0.26842 0.68792,-0.91124 0.787504,-1.46023 0.09785,-0.5394 0.384489,-1.39744 0.636987,-1.90677 0.540176,-1.08962 1.586036,-5.82285 1.586036,-7.17788 0,-1.16093 -0.629808,-1.7847 -2.017702,-1.99835 -1.414862,-0.21781 -1.951048,-0.53913 -1.951048,-1.16922 0,-0.74049 -0.439899,-1.4944 -1.06816,-1.83064 -0.617638,-0.33055 -6.07559,0.18959 -6.07559,0.579 0,0.13013 1.378249,0.2031 3.062769,0.16216 l 3.062769,-0.0744 0.35215,1.01113 c 0.427795,1.22833 0.987081,1.6694 2.348347,1.85198 1.839558,0.24674 1.928677,0.52208 1.230572,3.80192 -0.881558,4.14177 -1.996597,7.3266 -2.872637,8.20495 -0.580552,0.58209 -0.812528,1.17453 -1.084697,2.77024 -0.44288,2.59662 -0.265207,3.31613 0.943618,3.82121 l 0.938633,0.39219 -0.127955,1.6409 c -0.07038,0.90249 -0.322963,2.4148 -0.561303,3.36069 -0.475472,1.88696 -0.448632,3.56995 0.259461,16.27095 0.289753,5.19729 0.299718,6.68186 0.04652,6.93209 -0.221377,0.21878 -2.640457,0.40366 -7.730535,0.59082 -9.854199,0.36234 -51.678029,0.67845 -56.318739,0.42567 -4.59924,-0.25053 -4.66772,-0.29859 -4.66772,-3.27603 0,-1.34184 -0.17575,-2.58606 -0.49729,-3.52066 -0.90251,-2.62318 -0.94894,-3.91663 -0.20413,-5.68622 0.46189,-1.09742 0.74356,-2.45837 0.93652,-4.52499 0.23785,-2.54739 0.40535,-3.21249 1.21291,-4.81609 0.73146,-1.45247 0.99121,-2.36895 1.18433,-4.17856 0.13605,-1.27492 0.48584,-3.27052 0.7773,-4.43469 1.1905,-4.75515 1.9306,-11.51404 1.91281,-17.46855 -0.007,-2.33167 0.054,-4.49416 0.13538,-4.80555 0.12296,-0.47017 0.41772,-0.59746 1.73854,-0.75076 1.39942,-0.16242 1.68653,-0.11358 2.3901,0.40659 0.491,0.36302 1.39054,0.66086 2.33075,0.77172 2.22946,0.26287 2.93274,1.05131 3.45427,3.87254 0.32703,1.76905 1.05524,3.07097 1.99991,3.57546 1.19553,0.63847 3.91469,0.47066 6.25302,-0.3859 1.97045,-0.72179 2.14799,-0.74197 4.04571,-0.45972 3.59249,0.53432 6.23584,0.24356 6.85219,-0.75373 0.32845,-0.53144 -0.0321,-0.5851 -1.05624,-0.15718 -1.16363,0.48619 -2.90412,0.52263 -5.81712,0.12177 -2.05891,-0.28332 -2.17761,-0.26889 -4.35012,0.52883 -3.9136,1.43703 -6.2379,0.92496 -6.87428,-1.5145 -0.13956,-0.53498 -0.38818,-1.50847 -0.5525,-2.16331 -0.28172,-1.12271 -0.91171,-2.06864 -1.90599,-2.86184 -0.24012,-0.19157 -1.15838,-0.45033 -2.04057,-0.57503 -0.88219,-0.12469 -1.89483,-0.4555 -2.25031,-0.73512 -0.53004,-0.41692 -1.04205,-0.50213 -2.84566,-0.47353 l -2.19932,0.0349 -0.15982,2.50376 c -0.0879,1.37707 -0.0463,3.50874 0.0924,4.73706 0.2207,1.95406 0.19782,2.27308 -0.18301,2.55155 -0.30281,0.22142 -0.38355,0.52426 -0.26536,0.99519 0.36738,1.46373 -0.94368,11.7543 -1.76746,13.87291 -0.15397,0.39598 -0.37803,1.83606 -0.49791,3.20016 -0.18477,2.10253 -0.37834,2.80759 -1.2712,4.63021 -0.92532,1.8889 -1.0696,2.43921 -1.188,4.53127 -0.0883,1.5609 -0.37602,3.10568 -0.83507,4.4841 -0.76653,2.30172 -0.74627,3.04558 0.15423,5.66291 0.33921,0.98595 0.49722,2.18407 0.49722,3.77028 0,2.89919 0.48866,3.66258 2.54279,3.97239 1.60058,0.2414 35.23346,0.0765 53.28429,-0.26132 z m 8.711317,-1.63454 c 2.390129,-0.14044 4.380167,-0.28982 4.422304,-0.33196 0.04214,-0.0421 -0.09516,-3.04751 -0.30511,-6.67861 -0.545864,-9.44082 -0.52067,-15.62776 0.07082,-17.39038 0.644403,-1.92031 0.498462,-3.00146 -0.472977,-3.50381 -1.416931,-0.73272 -1.581478,-1.62082 -0.902938,-4.87334 0.32177,-1.54237 0.607636,-2.18583 1.322702,-2.97732 0.501719,-0.55535 0.912214,-1.25341 0.912214,-1.55126 0,-0.29785 0.181055,-0.89166 0.402342,-1.31958 0.221281,-0.42792 0.65084,-1.94005 0.954571,-3.3603 0.303731,-1.42024 0.615231,-2.86282 0.692222,-3.20572 0.1602,-0.71351 -0.267221,-1.08574 -1.255385,-1.09327 -1.062728,-0.008 -2.373839,-0.9582 -2.552073,-1.84937 -0.246231,-1.23117 -0.607184,-1.38567 -2.514295,-1.07621 -2.559556,0.41532 -3.856141,0.35743 -4.172855,-0.18634 -0.224438,-0.38533 -0.271031,-0.32248 -0.277731,0.37464 -0.0094,0.98091 -0.518191,1.43032 -4.826718,4.26357 -3.5324,2.32287 -4.97091,2.72161 -4.97091,1.37786 0,-0.30464 0.33717,-0.66239 0.8599,-0.91239 1.04705,-0.50076 4.51406,-3.20385 3.77031,-2.93956 -1.0905,0.38751 -1.94623,0.46321 -2.39531,0.21189 -0.33959,-0.19004 -0.8336,-0.0898 -1.84912,0.37508 -1.63313,0.74767 -5.02307,1.09694 -6.54419,0.67425 -0.9714,-0.26993 -1.03081,-0.24537 -2.14836,0.88821 -1.1421,1.15849 -2.61592,1.94965 -4.65454,2.49859 -0.95074,0.25601 -1.34342,0.66188 -3.65897,3.78185 -3.08281,4.15378 -3.33486,4.42112 -4.16841,4.42112 -1.03128,0 -0.79899,-0.74634 1.16197,-3.73346 0.99249,-1.51186 2.23298,-3.48286 2.75665,-4.38 l 0.95211,-1.63117 -0.89607,0.37439 c -1.09505,0.45755 -2.70841,0.47427 -5.58796,0.0579 -2.04813,-0.29613 -2.2786,-0.27934 -3.5856,0.26125 -5.34217,2.20954 -8.89695,0.95563 -9.59454,-3.38436 -0.42262,-2.62931 -1.50361,-3.70417 -3.7253,-3.70417 -0.54478,0 -1.29054,-0.23548 -1.7246,-0.54456 -0.55005,-0.39167 -1.08151,-0.52166 -1.89293,-0.46302 l -1.12816,0.0815 -0.20471,1.7198 c -0.1234,1.03673 -0.0811,2.73654 0.10642,4.27975 0.2259,1.85878 0.23246,2.76466 0.0239,3.30729 -0.15794,0.41103 -0.41812,2.17608 -0.57817,3.92233 -0.40114,4.37666 -0.7654,6.73896 -1.46874,9.525 -0.33063,1.30969 -0.67252,3.27422 -0.75975,4.36563 -0.12426,1.55481 -0.36137,2.37757 -1.09534,3.80076 -0.77173,1.49641 -0.98173,2.26546 -1.19212,4.36562 -0.28535,2.84836 -0.51656,3.91638 -1.18024,5.45192 -0.52504,1.21475 -0.42652,2.46127 0.39142,4.95285 0.35184,1.07176 0.53332,2.33287 0.53332,3.70607 0,1.90486 0.0505,2.10365 0.59531,2.34252 0.75391,0.33056 56.17807,0.0714 62.355588,-0.29155 z m -23.784367,-3.54967 c -1.08679,-1.15684 -0.47093,-3.80721 1.62797,-7.00608 0.3291,-0.50156 0.44559,-0.81752 0.25887,-0.70212 -0.18671,0.1154 -0.69519,0.0625 -1.12994,-0.11761 -0.71898,-0.29782 -0.8551,-0.2655 -1.50538,0.35735 -1.34757,1.29074 -3.83878,1.90659 -5.06272,1.25156 -0.3758,-0.20112 -0.62425,-0.0893 -1.17527,0.52917 -0.78678,0.88303 -1.41416,0.973 -2.5802,0.37002 -0.74536,-0.38544 -0.79033,-0.49101 -0.64797,-1.52136 0.13141,-0.95108 0.10993,-1.02324 -0.15239,-0.51185 -0.32453,0.63267 -0.99445,0.77786 -1.45662,0.31569 -0.19644,-0.19643 -0.46151,0.20675 -0.89103,1.35528 -0.74871,2.00202 -2.26823,3.9796 -3.51095,4.56931 -1.28783,0.61112 -3.28329,0.56695 -4.37192,-0.0968 -1.89752,-1.15688 -2.58258,-4.69 -1.65987,-8.56049 0.69957,-2.93448 1.83955,-5.10032 3.73044,-7.08745 1.28617,-1.35163 1.59135,-1.54193 2.47274,-1.54193 0.76605,0 1.19589,0.19039 1.80499,0.7995 0.48948,0.48947 0.7386,0.95822 0.64243,1.20881 -0.0987,0.2573 0.1339,0.65416 0.62636,1.06854 0.4731,0.39808 0.85301,1.03009 0.95908,1.59548 0.0966,0.51494 0.24948,0.82147 0.33972,0.68117 0.25367,-0.39438 1.29106,-0.64347 1.47051,-0.3531 0.10036,0.16238 0.50142,0.11692 1.07211,-0.12153 1.25125,-0.5228 1.88974,-0.47831 2.54541,0.17736 0.56355,0.56355 0.57601,1.16169 0.0655,3.14585 l -0.17017,0.66146 0.82013,-0.76622 c 0.6446,-0.60223 0.76593,-0.8675 0.56691,-1.23938 -0.45972,-0.859 -0.29375,-2.22982 0.34209,-2.82545 1.60972,-1.50791 4.95829,-1.46646 4.65898,0.0577 -0.1068,0.5438 -0.5502,0.83418 -1.61628,1.05849 -0.40018,0.0842 -0.7276,0.27215 -0.7276,0.41767 0,0.14552 0.27673,0.19513 0.61495,0.11024 0.66235,-0.16623 1.10549,0.19973 1.29598,1.07031 0.0772,0.35295 0.27546,10e-4 0.59527,-1.05706 0.93056,-3.07848 2.35925,-4.63148 4.26074,-4.63148 0.62663,0 1.21292,-0.11907 1.30285,-0.26459 0.22735,-0.36786 1.54684,-0.33171 1.93146,0.0529 0.17463,0.17463 0.31759,0.56158 0.31771,0.8599 1.4e-4,0.3607 0.18869,0.16162 0.56287,-0.59433 1.20762,-2.43968 3.75225,-3.26325 4.97454,-1.61001 0.68115,0.9213 1.06559,0.6944 1.07291,-0.63325 0.003,-0.55299 0.18105,-0.80145 0.72133,-1.00686 0.3945,-0.14999 0.97026,-0.20922 1.27946,-0.13161 0.35504,0.0891 0.88962,-0.10047 1.4508,-0.51449 1.080434,-0.79713 2.188565,-0.84033 2.91523,-0.11366 0.492119,0.49212 0.526864,0.75355 0.377994,2.84427 l -0.163939,2.30233 0.746485,-0.86228 c 0.793367,-0.91643 1.590146,-1.11547 1.841656,-0.46004 0.294868,0.76841 -0.220551,1.84622 -1.489908,3.11557 -1.187881,1.18788 -1.365972,1.27594 -2.426026,1.19958 -1.574342,-0.11341 -1.962472,-0.89513 -1.531672,-3.08487 0.16778,-0.85281 0.25911,-1.7763 0.20296,-2.05218 -0.0902,-0.44303 -0.15827,-0.41725 -0.58301,0.22077 -0.29071,0.43669 -0.60887,1.72114 -0.80448,3.24777 -0.17796,1.38896 -0.4612,2.66302 -0.62942,2.83124 -0.2145,0.2145 -0.60314,0.23228 -1.30122,0.0595 -0.81189,-0.20092 -1.0201,-0.38764 -1.12951,-1.01293 l -0.13413,-0.7666 -0.3413,0.94691 c -0.53176,1.4753 -1.95113,2.57067 -3.33107,2.57067 -0.80876,0 -1.2813,-0.15568 -1.62487,-0.53532 -0.48077,-0.53126 -0.49054,-0.52595 -1.2883,0.70044 -0.72576,1.11572 -0.82285,1.52111 -0.99948,4.17334 -0.25019,3.75663 -0.36204,4.17488 -1.37035,5.12404 -1.55593,1.46466 -3.66366,1.79588 -4.66247,0.73269 z m 4.1663,-1.27897 c 0.76104,-0.82417 1.11398,-2.36106 1.11569,-4.85821 0.001,-1.91998 0.0969,-2.34294 0.86137,-3.81063 1.14189,-2.19233 1.49448,-2.39175 2.59355,-1.46695 1.43335,1.20609 2.88583,0.47102 3.94796,-1.99798 0.46079,-1.07111 0.67216,-1.29814 1.14587,-1.23073 0.46185,0.0657 0.59768,0.28593 0.66297,1.07484 0.0706,0.85296 0.1727,0.99219 0.72761,0.99219 0.35501,0 0.64548,-0.15196 0.64548,-0.33767 0,-0.18572 0.12629,-1.34481 0.28063,-2.57576 0.30267,-2.41383 1.123,-3.96574 2.09626,-3.96574 0.728949,0 0.871617,0.81231 0.53393,3.04006 -0.16512,1.0893 -0.22573,2.10107 -0.13469,2.24837 0.09104,0.1473 0.537123,0.26782 0.991307,0.26782 0.641726,0 1.080553,-0.27357 1.968759,-1.22736 0.628635,-0.67505 1.142971,-1.39356 1.142971,-1.5967 0,-0.20315 -0.369522,0.0515 -0.821158,0.56589 -1.348552,1.53592 -1.532048,1.31932 -1.617287,-1.90902 l -0.0751,-2.84427 -0.701275,-0.0812 c -0.487595,-0.0564 -0.995197,0.17689 -1.665887,0.76576 -0.89356,0.78456 -1.01439,0.8203 -1.64043,0.48526 -0.60295,-0.32269 -0.71572,-0.3071 -1.04609,0.1447 -0.20365,0.27852 -0.3719,0.81106 -0.37389,1.18343 -0.006,1.19766 -0.30091,1.86766 -0.82099,1.86766 -0.27407,0 -0.49831,-0.17197 -0.49831,-0.38216 0,-0.21018 -0.3933,-0.81145 -0.87399,-1.33615 -0.75647,-0.82574 -0.96103,-0.92007 -1.52135,-0.70159 -1.31157,0.51139 -2.89633,2.70297 -2.89633,4.00535 0,0.88113 -0.73208,2.3833 -1.16151,2.3833 -0.65476,0 -0.70975,-0.39884 -0.31478,-2.28308 0.20769,-0.99081 0.32014,-1.89449 0.24988,-2.00816 -0.18538,-0.29995 -1.09468,-0.2535 -1.29215,0.066 -0.0927,0.14999 -0.54621,0.20561 -1.0078,0.1236 -1.74696,-0.31037 -3.16981,1.21026 -4.14906,4.43421 -0.42736,1.40698 -0.83069,2.10125 -1.81245,3.11981 -1.3802,1.43193 -2.50713,1.75175 -2.81,0.79748 -0.21327,-0.67195 0.21449,-1.3078 1.47788,-2.19685 1.26107,-0.8874 1.35644,-1.52387 0.22836,-1.52387 -1.55704,0 -1.22051,-1.66193 0.398,-1.96557 1.33035,-0.24958 1.15449,-0.68026 -0.27776,-0.68026 -0.9921,0 -1.3541,0.14312 -2.00282,0.79184 -0.60627,0.60627 -0.74831,0.93179 -0.60613,1.38906 0.10214,0.32847 0.28903,0.63691 0.41531,0.68542 0.48758,0.18728 0.20956,1.31929 -0.42634,1.73595 -0.36077,0.23639 -0.84008,0.78586 -1.06513,1.22106 -0.24474,0.47327 -0.6191,0.79125 -0.93154,0.79125 -0.61856,0 -0.68364,-0.80952 -0.23372,-2.90742 0.45348,-2.11451 -0.0888,-2.47314 -2.35108,-1.5548 -0.74845,0.30382 -0.90678,0.29825 -1.11903,-0.0393 -0.19645,-0.31247 -0.31519,-0.21505 -0.57816,0.47434 -0.47557,1.24671 -1.03709,0.97823 -1.40909,-0.67372 -0.34619,-1.53731 -0.9985,-2.44281 -1.75977,-2.44281 -0.67956,0 -0.9404,-0.78986 -0.39302,-1.19011 0.40417,-0.29553 0.40082,-0.35294 -0.044,-0.75549 -0.88069,-0.79701 -1.98449,-0.55335 -3.1204,0.68883 -2.67337,2.92347 -3.89174,5.94786 -3.91705,9.72344 -0.0203,3.02286 0.54318,4.40297 2.09901,5.14126 2.92252,1.38683 6.48179,-2.33812 7.16656,-7.50015 0.13984,-1.05415 0.28173,-1.34528 0.6557,-1.34528 0.61361,0 0.85424,0.77708 0.62274,2.01106 -0.12601,0.6717 -0.094,0.92078 0.10285,0.79915 0.15725,-0.0972 0.36823,-0.72562 0.46884,-1.39651 0.18788,-1.25292 0.86567,-2.20745 1.56744,-2.20745 0.52519,0 0.51749,1.17794 -0.0213,3.25709 -0.39299,1.51662 -0.38995,1.63431 0.0506,1.95642 0.6872,0.5025 0.97827,0.43048 1.82279,-0.45101 0.76409,-0.79754 1.54782,-1.02147 1.85208,-0.52917 0.24009,0.38848 1.90024,0.32227 2.72512,-0.10867 0.39296,-0.20529 1.06416,-0.74107 1.49157,-1.19062 0.8522,-0.89636 1.49414,-1.03126 2.00102,-0.4205 0.18116,0.21828 0.48281,0.39688 0.67034,0.39688 0.44626,0 1.52529,-1.29437 1.966,-2.35834 0.40148,-0.96926 1.15235,-1.0142 1.2859,-0.0769 0.0941,0.66027 -0.72607,2.11217 -2.34711,4.15508 -1.91256,2.41028 -2.67726,5.5218 -1.55095,6.3107 0.48541,0.33999 0.69245,0.34018 1.68632,0.002 0.62314,-0.21232 1.37475,-0.64787 1.67025,-0.96789 z m -2.48544,-0.30196 c -0.48495,-1.26375 0.92598,-5.04239 1.88282,-5.04239 0.45695,0 0.52347,0.16248 0.48743,1.19063 -0.023,0.65484 -0.26108,1.84547 -0.52917,2.64583 -0.37704,1.12564 -0.62252,1.47439 -1.08393,1.53991 -0.35939,0.051 -0.66035,-0.0817 -0.75715,-0.33398 z m 1.22691,-1.80124 c 0.52514,-2.03255 0.52501,-2.19515 -0.001,-1.12448 -0.47474,0.96641 -0.70951,2.24896 -0.41168,2.24896 0.0671,0 0.25283,-0.50602 0.41263,-1.12448 z m -22.23067,0.46287 c -0.80137,-0.96558 -0.60883,-6.17705 0.23637,-6.39807 0.26543,-0.0694 0.60015,-0.6198 0.8108,-1.33321 0.50627,-1.71462 2.13363,-3.30813 3.26619,-3.19824 1.33692,0.12973 1.66796,1.11798 1.31191,3.91652 -0.55274,4.3445 -2.35695,7.41002 -4.36116,7.41002 -0.51404,0 -1.08289,-0.17866 -1.26411,-0.39702 z m 2.22216,-0.68741 c 1.82763,-1.43761 3.47973,-7.47927 2.53032,-9.25326 -0.25373,-0.47411 -0.33265,-0.48337 -1.03279,-0.12132 -0.8403,0.43454 -1.6377,1.60661 -2.1205,3.11683 -0.17446,0.5457 -0.47167,0.99218 -0.66048,0.99218 -0.42772,0 -0.67401,1.17863 -0.67401,3.22547 0,2.51329 0.58319,3.1211 1.95746,2.0401 z m 18.77786,-7.24437 c -0.21697,-0.56542 0.857,-3.56545 1.5346,-4.28672 0.6936,-0.7383 1.80717,-0.83112 1.80715,-0.15062 -2e-5,0.70546 -2.4154,4.82864 -2.82864,4.82864 -0.19963,0 -0.43053,-0.17608 -0.51311,-0.3913 z m 1.99448,-3.11443 c 0.32818,-0.5457 0.5257,-0.99218 0.43893,-0.99218 -0.19908,0 -1.20599,1.63658 -1.20732,1.96232 -0.001,0.2981 0.0275,0.26189 0.76839,-0.97014 z m 6.1627,1.86532 c -0.99012,-0.99012 0.1917,-5.27471 1.50618,-5.46054 0.58201,-0.0823 0.61944,-0.0214 0.46418,0.75489 -0.11403,0.57015 -0.0249,1.08805 0.27432,1.59466 0.41764,0.70699 0.41483,0.81319 -0.0486,1.84088 -0.64685,1.43446 -1.52428,1.94192 -2.19609,1.27011 z m 1.42669,-1.58176 c 0.30017,-0.58047 0.33682,-0.88807 0.13041,-1.09448 -0.15791,-0.1579 -0.29187,-0.59071 -0.29769,-0.96178 l -0.0106,-0.67469 -0.36838,0.67732 c -0.37804,0.69506 -0.51775,1.50428 -0.44533,2.57944 0.0506,0.75062 0.43766,0.54535 0.99158,-0.52581 z m -21.14262,5.02465 c -0.0845,-0.21107 -0.14715,-0.14838 -0.15985,0.15985 -0.0115,0.27891 0.051,0.43518 0.13897,0.34727 0.0879,-0.0879 0.0973,-0.31613 0.0209,-0.50712 z m 7.78664,-0.678 c 1.36598,-1.51037 1.37915,-1.73281 0.0363,-0.61273 -0.76398,0.63722 -1.38906,1.19948 -1.38906,1.24946 0,0.34665 0.80691,-0.0331 1.35279,-0.63673 z m -7.52205,-0.38034 c -0.0845,-0.21106 -0.14716,-0.14837 -0.15985,0.15986 -0.0115,0.27891 0.051,0.43518 0.13896,0.34726 0.0879,-0.0879 0.0973,-0.31612 0.0209,-0.50712 z m -20.58838,-5.54136 c -0.51223,-0.51223 -0.55183,-0.77277 -0.43229,-2.84427 0.14299,-2.47783 0.94178,-4.76452 3.18311,-9.11221 0.61357,-1.1902 1.15635,-2.2533 1.20617,-2.36244 0.18265,-0.40016 -0.85313,-0.18061 -2.37942,0.50435 -1.92343,0.86318 -2.32542,0.65718 -1.84522,-0.94559 0.40027,-1.33596 1.44945,-2.09452 3.31756,-2.39855 0.79353,-0.12916 1.80305,-0.42112 2.24337,-0.64882 1.84393,-0.95354 3.36881,-0.25946 3.10826,1.41478 -0.0813,0.52214 -0.22028,2.3781 -0.30893,4.12435 l -0.1612,3.175 1.63132,-3.57188 c 0.89723,-1.96453 1.91189,-4.19695 2.25481,-4.96094 0.54759,-1.21999 0.71829,-1.38906 1.40248,-1.38906 0.42844,0 1.04833,0.21809 1.37751,0.48465 0.59011,0.47784 0.59238,0.50268 0.16161,1.76693 -0.48878,1.43449 -0.60922,6.3328 -0.17234,7.00884 0.14107,0.21828 0.25831,0.26846 0.26054,0.1115 0.009,-0.61716 1.69934,-2.79949 2.48234,-3.20439 0.45576,-0.23568 1.33436,-0.42087 1.95247,-0.41152 0.6181,0.009 1.19076,-0.0913 1.27256,-0.22368 0.22396,-0.36237 1.27303,-0.28911 1.84459,0.12883 0.45773,0.3347 0.47766,0.50284 0.21164,1.78594 -0.16151,0.77904 -0.25487,1.45826 -0.20747,1.50936 0.0474,0.0511 0.44393,-0.61576 0.88117,-1.48192 0.43723,-0.86617 1.10857,-1.94753 1.49184,-2.40303 0.70631,-0.8394 2.38365,-1.50087 3.10446,-1.22427 0.38615,0.14818 0.68224,-0.85408 1.20673,-4.08468 0.23709,-1.4604 0.83485,-1.90545 1.8133,-1.35006 1.36861,0.77686 1.37548,0.85869 0.44455,5.29167 -0.12965,0.61733 -0.10447,0.60775 0.37747,-0.14357 0.97461,-1.51938 2.09189,-2.23768 3.48061,-2.23768 2.26344,0 2.88644,1.6244 0.85815,2.23753 -1.05823,0.31989 -1.08116,0.67289 -0.0437,0.67289 0.58122,0 0.79375,0.12465 0.79375,0.46558 0,0.3494 0.21457,0.46493 0.8599,0.46301 0.72686,-0.002 0.87211,0.10241 0.93887,0.67594 0.10684,0.9178 -1.36783,3.06474 -2.7861,4.0562 -1.56426,1.09353 -3.54209,1.14482 -4.42853,0.11486 l -0.60821,-0.7067 -0.70865,1.30201 c -0.61418,1.12846 -0.81828,1.30201 -1.53119,1.30201 -0.4524,0 -1.04028,-0.19704 -1.3064,-0.43788 -0.26612,-0.24083 -0.48386,-0.31775 -0.48386,-0.17093 0,0.14683 -0.29197,0.582 -0.64882,0.96705 -0.81008,0.87409 -1.81827,0.90289 -2.64559,0.0756 l -0.62453,-0.62453 -0.8132,1.1537 c -0.70959,1.0067 -0.93766,1.15369 -1.79001,1.15369 -0.53724,0 -1.18506,-0.18847 -1.4396,-0.41882 -0.42478,-0.38443 -0.48612,-0.37525 -0.74671,0.11166 -0.51575,0.96369 -1.10751,1.3655 -2.01106,1.3655 -1.04593,0 -1.70126,-0.74336 -1.74298,-1.97711 l -0.0271,-0.80102 -0.192,0.79375 c -0.31954,1.32104 -1.10551,2.76235 -1.80745,3.31449 -0.6817,0.53623 -2.29566,0.71195 -2.56319,0.27906 -0.0826,-0.1336 0.19587,-1.29446 0.61876,-2.57969 0.42289,-1.28522 0.84119,-2.93209 0.92957,-3.65969 0.14604,-1.20225 0.0648,-1.07434 -0.89035,1.40228 -1.12285,2.91139 -1.66404,3.84163 -3.14783,5.41074 -1.05372,1.11432 -1.55406,1.21608 -2.4424,0.49675 l -0.61184,-0.49545 0.45024,-2.78175 c 0.24763,-1.52996 0.44602,-3.47991 0.44087,-4.3332 -0.009,-1.48168 -0.0265,-1.52171 -0.39008,-0.89 -0.20939,0.36381 -0.75497,1.61396 -1.21241,2.77813 -0.74928,1.90688 -0.81604,2.30453 -0.67355,4.01214 l 0.15815,1.89547 -0.92995,0.81651 c -1.10353,0.96891 -1.26762,0.98959 -2.00459,0.25262 z m 1.53094,-0.79755 c 0.53648,-0.504 0.58668,-0.73613 0.44738,-2.06881 -0.18751,-1.794 0.27214,-3.56671 1.75964,-6.78642 0.95659,-2.07053 1.62448,-2.73168 1.90724,-1.88802 0.13877,0.41405 -0.20917,6.77572 -0.46282,8.46197 -0.15634,1.03934 -0.11286,1.28104 0.25588,1.42254 1.05726,0.40571 2.88831,-2.30983 4.50245,-6.67735 1.1388,-3.08134 1.77166,-3.9123 2.17638,-2.85762 0.26568,0.69235 -0.33781,4.50774 -1.05374,6.66192 -0.35063,1.05502 -0.58835,1.91823 -0.52826,1.91823 0.0601,0 0.47098,-0.18707 0.91311,-0.41569 0.54086,-0.2797 1.0343,-0.90728 1.50821,-1.91824 0.68434,-1.45984 0.70263,-1.62778 0.64374,-5.91062 -0.0445,-3.23698 0.0413,-4.7468 0.32306,-5.68298 0.4048,-1.34505 0.25089,-1.79507 -0.56048,-1.63882 -0.34668,0.0668 -1.16678,1.59788 -2.85318,5.32684 -2.89573,6.40303 -3.2013,6.59757 -3.19379,2.0333 0.003,-1.67122 0.0623,-3.81249 0.13229,-4.75837 0.12635,-1.70698 0.12199,-1.72041 -0.58504,-1.80204 -0.39179,-0.0452 -0.9871,0.0923 -1.32292,0.30555 -0.33582,0.21329 -1.26242,0.47351 -2.05911,0.57827 -1.15607,0.15202 -1.6306,0.37256 -2.35038,1.09233 -1.06181,1.06182 -0.9878,1.29351 0.25256,0.7907 1.22739,-0.49755 3.35155,-0.75085 3.55369,-0.42377 0.0895,0.14476 -0.39102,1.30263 -1.06774,2.57305 -1.98425,3.72509 -3.24651,6.93215 -3.51595,8.93303 -0.13654,1.01392 -0.20451,1.99233 -0.15105,2.17423 0.39882,1.35707 0.45286,1.37972 1.32883,0.55679 z m 15.49649,-4.39325 c 0.22329,-0.25466 0.60199,-0.84997 0.84155,-1.32292 0.58326,-1.15143 1.48032,-1.19151 1.48032,-0.0661 0,0.69921 0.0913,0.79375 0.76617,0.79375 0.62983,0 0.91724,-0.23542 1.61508,-1.32291 0.97052,-1.51242 1.60253,-1.67671 2.03568,-0.52917 0.44648,1.18286 1.23888,1.04334 2.25404,-0.39687 0.92319,-1.30974 1.44923,-1.50808 1.57886,-0.59532 0.0616,0.43342 0.26184,0.59532 0.73648,0.59532 0.51388,0 0.82203,-0.3037 1.45521,-1.43421 0.4418,-0.78881 0.94706,-1.48166 1.1228,-1.53967 0.17574,-0.058 0.49532,0.31526 0.71017,0.82948 0.41729,0.99871 1.25838,1.39871 2.35979,1.12228 1.08033,-0.27115 2.79764,-1.71713 3.36866,-2.83644 0.54908,-1.07627 0.48022,-1.91745 -0.0738,-0.90174 -0.46775,0.85754 -2.48083,2.77592 -2.91295,2.77592 -0.21961,0 -0.54702,-0.178 -0.72757,-0.39555 -0.41744,-0.50299 0.10982,-1.37517 1.44867,-2.39636 1.16166,-0.88604 1.21153,-1.44142 0.12943,-1.44142 -0.4775,0 -0.86521,-0.16459 -0.95814,-0.40673 -0.21361,-0.55667 0.60543,-1.39798 1.45696,-1.49658 1.0349,-0.11983 0.73368,-0.59803 -0.43405,-0.68906 -1.29861,-0.10123 -2.19703,0.5864 -3.28511,2.51438 -0.78896,1.39796 -1.36826,1.91928 -1.73038,1.55716 -0.0955,-0.0955 0.1151,-1.61021 0.46808,-3.36595 0.63032,-3.13529 0.63272,-3.19887 0.13454,-3.56316 -0.27898,-0.20399 -0.58949,-0.3709 -0.69001,-0.3709 -0.10052,0 -0.39122,1.16086 -0.64598,2.57969 -0.6095,3.39432 -0.53907,3.26438 -1.6776,3.09525 -1.46108,-0.21704 -2.40142,0.52152 -3.59413,2.82287 -1.07284,2.07009 -2.13751,3.40844 -2.71142,3.40844 -0.46418,0 -0.43769,-0.74148 0.0949,-2.65729 0.26951,-0.96936 0.34704,-1.68516 0.19844,-1.83206 -0.14424,-0.14258 -0.98631,-0.14844 -2.06089,-0.0143 -1.52964,0.1909 -1.95716,0.36261 -2.70327,1.08577 -1.24561,1.20728 -2.00904,2.9704 -2.04748,4.72857 -0.0177,0.80711 0.0609,1.6163 0.17459,1.7982 0.30063,0.48108 1.3514,0.4048 1.82232,-0.13229 z m -0.58854,-1.87109 c 0,-2.30079 2.78115,-5.82446 3.57865,-4.53409 0.2739,0.44318 -2.55897,5.01612 -3.10742,5.01612 -0.27948,0 -0.47123,-0.19614 -0.47123,-0.48203 z m 8.55852,-1.77691 c -0.21144,-0.55098 0.60271,-2.60967 1.41275,-3.57234 0.70394,-0.8366 1.93498,-1.08697 1.93498,-0.39356 0,0.62437 -2.42148,4.37276 -2.82482,4.37276 -0.20174,0 -0.43704,-0.18309 -0.52291,-0.40686 z m 6.52273,-3.50302 c 0,-0.71671 0.76018,-1.64637 1.34622,-1.64637 0.86921,0 0.94366,0.80436 0.13854,1.4969 -0.85716,0.7373 -1.48476,0.80048 -1.48476,0.14947 z m 4.23333,0.32639 c 0.54352,-0.593 0.56711,-0.67242 0.13229,-0.44547 -0.29104,0.15191 -0.82682,0.60095 -1.19062,0.99786 -0.54353,0.59299 -0.56711,0.67242 -0.13229,0.44547 0.29104,-0.15191 0.82682,-0.60095 1.19062,-0.99786 z m 4.55083,1.4139 c -0.17462,-0.17462 -0.31173,-0.7997 -0.30468,-1.38906 0.0213,-1.78343 0.68479,-6.24063 0.97165,-6.52748 0.14779,-0.1478 0.73089,-0.23083 1.29577,-0.18453 l 1.02706,0.0842 -0.0169,1.91823 c -0.009,1.05503 0.026,1.91823 0.0783,1.91823 0.27516,0 1.38898,-2.89753 1.3912,-3.61912 0.004,-1.18909 0.66205,-1.76357 1.80805,-1.5776 0.66842,0.10847 1.11955,0.007 1.65148,-0.37189 1.173601,-0.83568 2.131364,-0.91157 2.86259,-0.22683 0.60049,0.56231 0.622599,0.70017 0.457248,2.85132 l -0.17375,2.26044 0.783728,-0.75086 c 0.98852,-0.94707 1.609069,-0.76813 1.609069,0.46399 0,0.73535 -0.237723,1.1205 -1.311582,2.12497 -1.090494,1.02003 -1.483368,1.22683 -2.33068,1.22683 -0.560504,0 -1.246763,-0.16647 -1.525023,-0.36994 -0.47183,-0.34501 -0.48415,-0.49687 -0.18286,-2.25387 0.17769,-1.03616 0.3193,-2.14961 0.3147,-2.47433 -0.008,-0.57392 -0.0263,-0.57006 -0.64966,0.13825 -0.64579,0.73373 -0.72401,1.02649 -1.11318,4.16614 l -0.21317,1.71979 -1.04778,0.0854 c -0.74819,0.061 -1.14065,-0.0416 -1.37257,-0.35873 -0.29254,-0.40008 -0.40791,-0.34948 -1.16243,0.50988 -0.6339,0.72198 -1.04337,0.95405 -1.68337,0.95405 -0.46514,0 -0.98859,-0.14288 -1.16321,-0.3175 z m 2.65526,-1.67532 c 0.89255,-1.26627 1.59882,-1.45473 1.74036,-0.46438 0.0814,0.56966 0.9837,1.08192 1.31757,0.74804 0.0935,-0.0935 0.24942,-1.09428 0.3465,-2.22399 0.26214,-3.05035 1.49438,-5.11138 2.764568,-4.62396 0.468585,0.17981 0.467188,0.34768 -0.03515,4.21835 -0.162431,1.25158 -0.131382,1.36124 0.426733,1.50719 0.786149,0.20558 1.827945,-0.35111 2.862805,-1.52974 1.101527,-1.25457 1.071819,-1.79477 -0.03947,-0.71767 -0.479869,0.4651 -1.075182,0.84565 -1.322916,0.84565 -0.510471,0 -0.556467,-0.75023 -0.194654,-3.175 0.164174,-1.10024 0.125706,-1.60043 -0.157705,-2.05052 -0.496628,-0.78872 -0.860512,-0.75214 -2.204761,0.22163 -0.81243,0.58852 -1.20822,0.73647 -1.41553,0.52916 -0.15828,-0.15828 -0.54628,-0.28777 -0.86223,-0.28777 -0.49172,0 -0.60046,0.19606 -0.75504,1.3613 -0.21129,1.59282 -0.88068,3.00912 -1.84972,3.91363 -1.03066,0.96204 -1.28007,0.49466 -0.99162,-1.85819 0.13227,-1.07884 0.19896,-2.03486 0.14822,-2.12449 -0.0507,-0.0896 -0.37045,-0.10977 -0.71048,-0.0448 -0.56926,0.10882 -0.6433,0.32078 -0.93491,2.6765 -0.47965,3.87487 -0.44616,4.27811 0.35533,4.27811 0.49039,0 0.89062,-0.31738 1.5121,-1.19907 z m -1.89778,-7.37983 c -0.19524,-0.23525 -0.24605,-0.73226 -0.13524,-1.32292 0.16107,-0.85856 0.25844,-0.9461 1.05244,-0.9461 1.37355,0 1.71199,0.23052 1.71199,1.16602 0,0.46465 -0.14287,0.98769 -0.3175,1.16232 -0.43762,0.43763 -1.93106,0.3993 -2.31169,-0.0593 z m 1.7877,-1.01224 c -0.0555,-0.39074 -0.26639,-0.59532 -0.61372,-0.59532 -0.34732,0 -0.55822,0.20458 -0.61371,0.59532 -0.0694,0.48833 0.0409,0.59531 0.61371,0.59531 0.57279,0 0.68307,-0.10698 0.61372,-0.59531 z m -19.81035,0.49645 c 1.41689,-1.91016 2.74389,-3.60609 2.94889,-3.76873 0.20501,-0.16265 1.02759,-0.5062 1.82795,-0.76345 2.0627,-0.66299 2.75383,-1.05484 3.84928,-2.1824 l 0.96351,-0.99177 h 3.34829 c 3.00436,0 3.46764,-0.0637 4.51014,-0.61975 0.91078,-0.48583 1.39903,-0.58418 2.25952,-0.45515 0.69631,0.10442 1.50667,0.0203 2.21625,-0.23005 1.19568,-0.42186 1.90301,-0.32086 1.90301,0.27174 0,0.20096 -0.92273,1.09526 -2.05052,1.98734 -2.22194,1.75754 -2.52668,2.0259 -1.91823,1.68924 0.88637,-0.49044 6.6195,-4.42165 6.745362,-4.6253 0.07454,-0.1206 0.05659,-0.42497 -0.03989,-0.67638 -0.154617,-0.40293 -0.466619,-0.43973 -2.632592,-0.31051 -2.69045,0.16052 -2.83124,0.10069 -3.13791,-1.33337 -0.11314,-0.52909 -0.84723,-1.58482 -1.89861,-2.73049 -2.04855,-2.23227 -2.10165,-2.74322 -0.37556,-3.61374 0.64588,-0.32574 1.29973,-0.71765 1.45299,-0.87092 0.39594,-0.39593 -0.29285,-0.77475 -1.43671,-0.79015 -0.50932,-0.007 -1.15716,-0.18727 -1.43963,-0.40092 -0.28248,-0.21366 -0.98097,-0.38846 -1.5522,-0.38846 -0.96518,0 -1.02967,-0.0468 -0.91216,-0.66146 0.0696,-0.3638 0.0239,-0.66146 -0.10145,-0.66146 -0.34325,0 -0.27357,-0.90048 0.10284,-1.32913 0.1819,-0.20714 0.0667,-0.15651 -0.25589,0.11251 -0.32841,0.27384 -0.81435,0.42958 -1.10402,0.35383 -0.42385,-0.11084 -0.50914,-0.009 -0.47172,0.56218 0.0351,0.53632 -0.0766,0.69748 -0.48348,0.69748 -0.29104,0 -0.71066,0.1786 -0.9325,0.39688 -0.36044,0.35467 -0.3323,0.41112 0.26459,0.53087 0.78261,0.157 1.08721,1.22769 0.42189,1.48299 -0.6401,0.24563 -0.49165,0.65997 0.17988,0.50209 0.32742,-0.077 0.75747,-0.0342 0.95567,0.095 0.37274,0.24306 0.84318,1.95367 0.91913,3.34214 0.0486,0.88849 0.27895,0.74653 -5.38053,3.3162 -4.33611,1.9688 -4.76192,2.06802 -5.77596,1.34596 -0.45305,-0.3226 -1.03202,-0.93915 -1.2866,-1.37012 -0.51326,-0.86888 -0.96455,-0.89321 -1.08805,-0.0586 -0.0793,0.53594 0.80145,1.358 1.86675,1.74232 0.30421,0.10975 0.46302,0.44576 0.46302,0.97964 0,0.44692 0.23813,1.27936 0.52917,1.84985 0.81924,1.60584 0.70865,2.2925 -0.45777,2.84218 -0.54281,0.25581 -1.20647,0.82229 -1.47479,1.25886 -0.26833,0.43656 -1.43215,2.25966 -2.58627,4.05133 -1.15412,1.79166 -1.96629,3.17593 -1.80482,3.07614 0.16146,-0.0998 1.45284,-1.7443 2.86973,-3.65446 z m 9.14247,-20.40409 c -0.14552,-0.0485 -0.58407,-0.15849 -0.97456,-0.24431 -0.40542,-0.0891 -0.78669,-0.39778 -0.88882,-0.71956 -0.0984,-0.30994 -0.25513,-0.44657 -0.34836,-0.30365 -0.0932,0.14293 -0.34811,0.32376 -0.56639,0.40185 -0.56569,0.20237 1.24251,0.97781 2.24896,0.96446 0.43656,-0.006 0.67469,-0.0503 0.52917,-0.0988 z m -3.98091,-2.05278 c -0.35361,-0.61846 -0.64436,-1.38534 -0.64611,-1.70418 -0.003,-0.57297 -0.43753,-1.05853 -0.70641,-0.78965 -0.21863,0.21863 0.1134,1.03783 0.96475,2.38027 0.98062,1.54626 1.25245,1.62587 0.38777,0.11356 z m 8.04227,-3.83646 c 0.29336,-0.54088 0.26543,-0.59531 -0.30542,-0.59531 -0.67188,0 -1.23582,-0.87071 -1.25045,-1.93068 -0.007,-0.52314 -0.0357,-0.53542 -0.27773,-0.11984 -0.14832,0.25466 -0.59119,0.46768 -0.98414,0.47337 l -0.71446,0.0104 0.79375,0.35036 c 1.24966,0.55162 1.78277,1.339 1.94141,2.86739 0.13824,1.33183 0.15156,1.35187 0.30931,0.4657 0.0907,-0.50932 0.31015,-1.19393 0.48773,-1.52135 z m -8.77542,-0.64492 c -0.0845,-0.21107 -0.14715,-0.14837 -0.15985,0.15985 -0.0115,0.27892 0.051,0.43519 0.13897,0.34727 0.0879,-0.0879 0.0973,-0.31613 0.0209,-0.50712 z"
       id="path21"
       inkscape:connector-curvature="0" />
    <path
       style="fill:#00ffff;stroke-width:0.35714287"
       d="m 48.612698,192.31685 c -0.542737,-1.20911 -0.673277,-2.30365 -0.649565,-5.44643 0.06799,-9.01153 3.349501,-18.72132 12.34985,-36.54246 4.670202,-9.24723 5.768384,-12.05383 4.9252,-12.58722 -1.425402,-0.90171 -7.779322,-0.0964 -12.851886,1.62891 -3.23159,1.09914 -4.084113,1.15403 -3.590211,0.23117 0.65045,-1.21538 4.431154,-4.7436 5.869178,-5.47723 0.783404,-0.39966 3.124945,-1.03259 5.203425,-1.4065 4.333121,-0.77951 5.52149,-1.12403 8.225053,-2.38452 2.078951,-0.96927 5.756306,-1.2645 6.499041,-0.52177 0.275927,0.27593 0.25958,3.77005 -0.0575,12.29167 -0.44562,11.97601 -0.286118,20.78496 0.412645,22.78943 0.236722,0.67907 0.623054,1.081 1.039029,1.081 1.319982,0 3.701736,-4.39157 11.105131,-20.47608 4.983632,-10.82737 7.413403,-15.66097 8.913443,-17.73171 0.963371,-1.32989 1.200303,-1.46526 2.391478,-1.36632 1.290672,0.10721 1.324868,0.14772 1.435543,1.7004 0.06235,0.87482 -0.07898,2.32125 -0.314075,3.21429 -0.235093,0.89304 -0.584111,2.26657 -0.775589,3.05228 -0.191479,0.78572 -0.465004,9.22322 -0.607832,18.75 -0.242193,16.15458 -0.308511,17.45375 -0.984493,19.28572 -1.261982,3.42007 -3.310915,7.14435 -4.847775,8.81165 -1.73654,1.88392 -5.798022,4.15955 -5.504136,3.08394 0.09701,-0.35508 0.742771,-2.49381 1.435014,-4.75274 2.405097,-7.8483 3.810043,-14.47404 4.51624,-21.29863 0.455346,-4.40044 0.135882,-6.62933 -1.040404,-7.25886 -1.696221,-0.90779 -3.418054,1.96704 -7.734711,12.91412 -4.810318,12.19901 -8.813337,19.45335 -12.622948,22.87552 -1.955885,1.75696 -3.642629,2.22217 -4.596952,1.26785 -0.509188,-0.50919 -0.540467,-2.79839 -0.08198,-6 0.422791,-2.95235 1.346389,-16.60617 1.642782,-24.28571 0.254528,-6.59485 0.02688,-7.85714 -1.416987,-7.85714 -1.330426,0 -3.189631,2.44916 -5.55783,7.32142 -2.768401,5.69563 -5.11994,11.69857 -6.295684,16.07143 -0.889452,3.30808 -0.956868,4.05457 -0.914258,10.12341 l 0.046,6.55198 -1.976992,1.93017 c -1.087345,1.06159 -2.186468,1.93016 -2.442494,1.93016 -0.256027,0 -0.771161,-0.68094 -1.144744,-1.5132 z"
       id="path69"
       inkscape:connector-curvature="0"
       transform="matrix(0.26458333,0,0,0.26458333,-161.24436,-173.69654)" />
    <path
       style="fill:#00ffff;stroke-width:0.35714287"
       d="m 104.86926,176.02165 c -0.75655,-0.61261 -0.83401,-1.00506 -0.97415,-4.93553 -0.18465,-5.17921 0.5596,-8.6727 2.8393,-13.3275 1.16421,-2.37714 2.11457,-3.66597 4.3807,-5.94086 2.58014,-2.59013 3.15347,-2.9853 5.28737,-3.6444 3.22884,-0.99728 10.8088,-1.72138 12.2009,-1.16551 0.99901,0.3989 1.02032,0.46109 0.78044,2.27686 -0.13564,1.02672 -0.73126,3.7794 -1.32361,6.11707 -1.13713,4.48763 -1.43494,7.79865 -0.76199,8.4716 0.61609,0.61609 2.10001,0.0834 3.63767,-1.30575 1.8126,-1.63758 4.34837,-5.35617 7.52445,-11.03428 3.19288,-5.70815 4.96324,-8.08351 7.05946,-9.47199 1.99335,-1.32035 3.36728,-1.59812 6.66936,-1.34839 2.83252,0.21423 3.64964,-0.065 4.16612,-1.42338 0.19057,-0.50125 1.14446,-4.91572 2.11976,-9.80992 0.97529,-4.8942 1.94161,-9.21313 2.14738,-9.59761 0.35117,-0.65616 0.4402,-0.66489 1.45086,-0.14226 2.97086,1.53629 3.03163,2.24931 1.05623,12.39333 -1.64362,8.44028 -2.36769,13.49857 -2.05056,14.32499 0.13065,0.34048 0.62368,0.58621 1.17613,0.58621 1.32271,0 2.79493,-1.66966 5.90394,-6.69576 4.1472,-6.70447 7.10827,-9.0508 11.35592,-8.99836 2.0619,0.0255 4.1328,0.71766 4.1328,1.38141 0,0.31778 -0.67023,0.66237 -1.78571,0.9181 -3.17734,0.72843 -5.24193,2.27831 -5.75429,4.31972 -0.48623,1.93729 0.61912,2.83442 3.97876,3.22928 2.18764,0.25712 2.90613,0.80549 2.36939,1.8084 -0.19172,0.35822 -2.07643,2.25357 -4.18825,4.21189 -4.39174,4.07252 -5.53062,5.91489 -4.77862,7.73038 0.4487,1.08327 1.94215,2.09599 3.08742,2.09361 0.3535,-7.2e-4 1.16862,-0.32197 1.81139,-0.71387 2.01707,-1.22981 7.12548,-6.39427 8.90795,-9.00569 1.85495,-2.7176 2.35035,-2.57066 1.3623,0.40407 -0.8502,2.55972 -2.38384,4.66992 -5.57735,7.67414 -6.81813,6.41401 -13.27219,7.04339 -16.20365,1.58013 -1.55518,-2.89832 -2.32038,-3.86602 -3.05704,-3.86602 -0.71834,0 -2.94315,2.9221 -4.9671,6.52387 -1.81959,3.23807 -3.2306,4.54864 -4.89023,4.54209 -1.83848,-0.007 -2.20363,-0.29102 -2.73467,-2.12517 -0.93486,-3.22893 -2.081,-2.80179 -6.18435,2.3048 -4.33672,5.39703 -6.08705,5.74515 -8.22544,1.63599 -1.2981,-2.49445 -1.67654,-2.86781 -2.91521,-2.87611 -1.35411,-0.009 -2.39719,0.94366 -4.90219,4.47756 -3.13222,4.41875 -4.02695,5.15983 -6.22964,5.15983 -0.94302,0 -1.87698,-0.20089 -2.07546,-0.44643 -0.19849,-0.24554 -0.47656,-1.33036 -0.61793,-2.41071 -0.58321,-4.45661 -3.19587,-4.25996 -5.94887,0.44776 -2.02692,3.4661 -3.38644,5.18071 -4.60914,5.81299 -1.41964,0.73412 -3.65374,0.66659 -4.65055,-0.14058 z m 7.4945,-7.11497 c 2.67719,-2.81888 8.48107,-12.169 9.86057,-15.88551 0.60576,-1.63198 0.60535,-1.73081 -0.01,-2.41072 -0.89839,-0.9927 -2.25858,-0.88359 -4.18067,0.33536 -5.45871,3.46181 -11.38571,16.67512 -8.41363,18.75684 1.11311,0.77966 1.29827,0.72595 2.74369,-0.79597 z m 32.7196,-7.30878 c 1.91189,-2.21068 5.97542,-8.48909 7.71563,-11.92115 1.31805,-2.59947 1.45552,-3.08524 1.09627,-3.87373 -0.85192,-1.86974 -5.01552,-0.72208 -7.37322,2.03236 -2.37267,2.77193 -5.55287,10.04864 -5.55287,12.7057 0,1.07127 1.27136,2.57468 2.17728,2.57468 0.34331,0 1.21492,-0.68303 1.93691,-1.51786 z m 25.60159,-13.11063 c 2.88315,-2.06457 3.90289,-4.57163 2.40931,-5.9233 -2.17098,-1.96472 -6.05336,0.50027 -7.13921,4.53281 -0.83983,3.11889 1.39766,3.77666 4.7299,1.39049 z"
       id="path71"
       inkscape:connector-curvature="0"
       transform="matrix(0.26458333,0,0,0.26458333,-161.24436,-173.69654)" />
    <path
       style="fill:#00ffff;stroke-width:0.35714287"
       d="m 201.6379,152.16586 c -0.34933,-0.42245 -0.4713,-1.54034 -0.42452,-3.89089 0.0766,-3.85022 1.73835,-17.47316 2.36307,-19.3725 0.4803,-1.46027 1.61302,-2.20202 3.37487,-2.21001 l 1.16071,-0.005 -0.0106,1.875 c -0.006,1.03125 -0.24126,4.125 -0.52321,6.875 -0.70709,6.8965 -0.31321,8.77251 1.73395,8.25871 1.30091,-0.32651 4.90203,-4.40935 6.34915,-7.19847 1.63308,-3.14754 2.28701,-5.19943 3.01199,-9.45088 0.65056,-3.81506 0.92429,-4.50169 1.92075,-4.81795 0.79861,-0.25347 3.45283,0.3773 3.77394,0.89687 0.54758,0.886 2.37232,0.23841 6.06543,-2.15257 4.5126,-2.92152 5.6427,-3.14627 7.10172,-1.41233 1.5773,1.87452 1.79989,3.51131 1.16343,8.55519 -0.95962,7.60497 -1.02527,8.46036 -0.76674,9.99059 0.50841,3.00924 2.51385,2.61664 7.07594,-1.38524 1.1409,-1.0008 2.22984,-1.81963 2.41989,-1.81963 0.54611,0 -0.53721,1.7851 -2.41384,3.97754 -4.15405,4.85311 -8.20906,7.02396 -11.4828,6.14733 -1.41884,-0.37993 -1.48261,-1.3775 -0.56957,-8.90952 0.47392,-3.90952 0.86238,-8.20123 0.86325,-9.53715 l 0.002,-2.42894 -1.32212,-0.55241 c -4.53569,-1.89513 -9.14072,5.14346 -10.43275,15.946 -1.19902,10.02494 -1.38464,10.64946 -3.01491,10.14384 -1.37747,-0.42721 -2.72397,-1.60082 -2.95806,-2.57826 -1.02034,-4.26024 -2.90893,-3.92374 -7.07579,1.26069 -1.2831,1.59645 -2.7578,3.23685 -3.27709,3.64533 -1.1629,0.91473 -3.40752,0.99666 -4.1077,0.14993 z"
       id="path73"
       inkscape:connector-curvature="0"
       transform="matrix(0.26458333,0,0,0.26458333,-161.24436,-173.69654)" />
    <path
       style="fill:#00ffff;stroke-width:0.35714287"
       d="m 163.99665,250.88362 c -3.75106,-3.48941 -1.14229,-13.77223 5.82153,-22.94643 7.98292,-10.51675 10.26588,-15.36681 8.45217,-17.95625 -0.73179,-1.04478 -2.30768,-1.04005 -3.27157,0.01 -0.40577,0.44196 -1.25922,1.84821 -1.89654,3.125 -1.33921,2.68288 -3.93777,6.12418 -5.30014,7.019 -1.28057,0.8411 -2.09854,0.70886 -3.40433,-0.55037 -2.77368,-2.67477 -4.24709,-2.28216 -9.42766,2.51209 -3.57922,3.31233 -5.6557,4.27505 -9.72071,4.50682 -3.03167,0.17286 -3.28025,0.13151 -4.56599,-0.75951 -2.34946,-1.62817 -4.03594,-1.09722 -7.96357,2.50715 -2.80351,2.57279 -3.67677,2.7848 -5.72835,1.39072 -1.57628,-1.07111 -1.73559,-1.62197 -1.19325,-4.1259 1.93812,-8.948 2.36221,-11.41799 2.22082,-12.93458 -0.26076,-2.79703 -1.45435,-3.46682 -3.71815,-2.08647 -1.68726,1.02881 -2.84639,3.33922 -4.05012,8.07285 -1.00586,3.95553 -1.51243,5.19357 -1.94717,4.75883 -0.0976,-0.0976 0.005,-1.53812 0.22711,-3.20116 0.22251,-1.66304 0.28904,-3.63953 0.14783,-4.39221 -0.30937,-1.64911 -1.70713,-3.16721 -2.77045,-3.00896 -1.34668,0.20042 -2.00794,1.70346 -2.77259,6.30206 -1.62329,9.76246 -5.43753,17.67727 -11.14343,23.12334 -5.178504,4.9427 -10.380217,6.28601 -15.415277,3.98088 -3.949044,-1.80794 -6.160746,-4.93543 -7.230646,-10.22462 -0.924317,-4.56949 -0.568012,-15.92957 0.661929,-21.10425 1.691318,-7.11582 4.615282,-13.28138 9.184722,-19.36718 6.928292,-9.22743 11.632892,-11.4677 15.891242,-7.56721 l 1.41288,1.29415 -0.93233,0.76655 c -0.51278,0.4216 -1.12713,1.14273 -1.36522,1.60252 -0.86311,1.66679 0.7637,3.62831 3.00918,3.62831 1.10226,0 2.83544,1.47568 3.92424,3.34121 0.47516,0.81412 1.33906,3.12398 1.91979,5.13302 2.08044,7.19732 3.59116,7.985 5.83752,3.04363 0.5581,-1.22768 1.13519,-2.23215 1.28241,-2.23215 0.14722,0 0.46842,0.32143 0.71376,0.71429 0.62899,1.00717 1.83061,0.8986 5.97574,-0.53991 5.09172,-1.76701 6.54534,-1.63308 7.30648,0.67318 0.40971,1.24143 0.33094,2.02255 -0.86885,8.61673 -1.01225,5.56337 -0.53878,8.03571 1.53887,8.03571 1.40484,0 2.29891,-0.76238 4.13765,-3.52824 0.89688,-1.3491 2.35756,-3.04853 3.24595,-3.7765 1.77301,-1.45285 2.48966,-2.59085 2.85375,-4.53163 0.20253,-1.07956 0.09,-1.435 -0.73102,-2.30909 -1.31798,-1.40316 -2.036,-3.20824 -1.7657,-4.43892 0.30042,-1.36782 2.74183,-4.07209 4.72609,-5.23494 1.38136,-0.80954 2.05304,-0.95454 4.51825,-0.97538 3.58539,-0.0303 5.10414,0.32015 4.50673,1.03998 -0.22894,0.27586 -1.27862,0.69455 -2.33263,0.93043 -3.63688,0.8139 -5.89887,2.68323 -5.96269,4.92764 -0.049,1.7233 1.02807,2.59241 3.65853,2.95215 2.63806,0.36078 2.84716,0.47096 2.84716,1.50024 0,0.89995 -1.54898,2.47995 -4.93982,5.03872 -3.88091,2.92859 -5.22372,5.71335 -3.93529,8.16116 0.57845,1.09896 0.99477,1.30412 2.65902,1.31034 2.01501,0.008 4.95827,-1.95947 8.36987,-5.59366 3.23902,-3.45034 4.48497,-5.69805 6.62937,-11.95937 2.76813,-8.08257 5.66639,-12.67647 9.37166,-14.85463 1.5319,-0.90053 1.97481,-0.98053 5.47938,-0.98966 2.97965,-0.008 3.95513,-0.1351 4.46429,-0.58276 0.92174,-0.8104 2.10262,-1.10548 3.33812,-0.83411 0.97808,0.21482 1.0634,0.3564 1.0634,1.7646 0,0.84208 -0.40178,3.66328 -0.89286,6.26935 -1.09647,5.8189 -1.12791,7.26494 -0.17857,8.21428 1.04507,1.04507 1.95504,0.87906 3.1539,-0.57536 1.36516,-1.65618 2.4872,-4.60468 2.92382,-7.68324 0.43534,-3.06957 1.3084,-5.375 3.00138,-7.92559 2.64653,-3.98717 7.25343,-7.74438 9.49576,-7.74438 1.44924,0 6.50884,5.53101 7.10673,7.76886 0.37261,1.39466 1.82314,2.14922 3.05372,1.58853 1.28687,-0.58633 1.99011,-2.45446 2.34395,-6.22659 0.22452,-2.39343 0.52176,-3.54087 1.23058,-4.75038 1.09128,-1.86213 1.82501,-2.00575 4.24371,-0.83065 2.04516,0.99362 2.77639,0.78216 5.76415,-1.66685 3.26942,-2.67989 4.03699,-3.02578 6.71468,-3.02578 h 2.28214 l 0.22606,8.48215 c 0.39064,14.6571 0.92957,15.47146 6.44779,9.74305 1.34896,-1.40035 2.5385,-2.46024 2.64342,-2.35531 0.36596,0.36596 -2.41177,4.10091 -4.99977,6.72272 -3.05216,3.09204 -5.0319,4.06062 -7.5331,3.68554 -3.07325,-0.46086 -3.01233,-0.22505 -2.09684,-8.11643 0.93173,-8.03145 0.96804,-9.52903 0.27146,-11.19619 -1.32855,-3.17967 -5.47254,-1.4586 -7.69364,3.1953 -1.44354,3.02466 -2.31155,6.8781 -3.02726,13.43916 -0.33041,3.02894 -0.71332,5.90608 -0.85091,6.39365 -0.51999,1.84264 -3.82121,1.84744 -4.37736,0.006 -0.14834,-0.49108 -0.37135,-1.79631 -0.49557,-2.90052 -0.27849,-2.47546 -1.13727,-3.52806 -2.87843,-3.52806 -1.68576,0 -2.23803,0.65392 -4.56052,5.39988 -2.25298,4.60394 -4.18927,7.05441 -6.43213,8.14015 -2.77994,1.34575 -5.0262,0.84128 -8.683,-1.95002 -1.66731,-1.27269 -3.13825,-1.56039 -4.43355,-0.86717 -1.61009,0.86169 -6.30988,9.28421 -7.32122,13.1204 -0.32311,1.22559 -0.61449,4.41878 -0.72476,7.94248 -0.29557,9.44505 -0.9528,13.27169 -2.89111,16.833 -1.30331,2.39462 -4.62904,4.65328 -8.64746,5.87292 -2.65786,0.80669 -3.81602,0.6622 -5.22914,-0.65235 z m 7.80661,-3.75424 c 1.94373,-1.71784 4.11498,-8.99009 4.42159,-14.80939 0.22434,-4.25786 -0.004,-4.91851 -1.70051,-4.91851 -1.32569,0 -2.93205,1.63674 -4.33805,4.42009 -3.47411,6.87746 -4.46306,14.89786 -1.96624,15.94636 1.03356,0.43404 2.70702,0.13581 3.58321,-0.63855 z m -75.553139,-4.8996 c 7.214579,-3.35876 13.287879,-18.30465 13.426929,-33.04259 0.0372,-3.94685 -0.0501,-4.65146 -0.75386,-6.07923 -1.00335,-2.03565 -2.49166,-2.94239 -4.87969,-2.97292 -4.847353,-0.062 -10.006639,5.33564 -12.919641,13.51644 -0.385117,1.08155 -1.235875,2.36999 -2.15748,3.2674 -2.261626,2.20227 -2.995547,5.52163 -2.988937,13.51831 0.0045,5.4183 0.633965,9.42676 1.70665,10.86763 1.428959,1.91943 5.48837,2.35777 8.566029,0.92496 z m 76.128309,-32.7088 c 4.55581,-6.649 8.10652,-13.93537 7.53875,-15.47019 -0.63018,-1.70353 -3.79483,-1.4596 -6.13415,0.47282 -2.32563,1.92109 -6.04946,10.43073 -6.59473,15.07017 -0.20739,1.76453 -0.14198,2.09913 0.54455,2.78566 1.32659,1.32659 2.10711,0.84634 4.64558,-2.85846 z m 30.51297,-2.30336 c 1.95634,-1.28184 4.86349,-6.81544 4.86349,-9.25739 0,-0.66028 -0.49552,-2.14093 -1.10115,-3.29034 -1.03312,-1.96074 -1.0938,-2.28842 -0.98215,-5.30413 l 0.11901,-3.21428 -1.30466,-0.10878 c -1.0435,-0.087 -1.56136,0.11661 -2.58712,1.01724 -2.65224,2.3287 -5.21536,9.4633 -5.21536,14.51728 0,3.03751 0.56167,4.65715 2.01018,5.79655 1.15736,0.91038 2.65505,0.85467 4.19776,-0.15615 z"
       id="path75"
       inkscape:connector-curvature="0"
       transform="matrix(0.26458333,0,0,0.26458333,-161.24436,-173.69654)" />
    <path
       style="fill:#00ffff;stroke-width:0.71428573"
       d="M 15.511107,272.61707 C 12.321323,271.84727 9.58751,270.09465 8.7330108,268.27169 8.2354773,267.21026 7.5709453,262.25479 7.2562732,257.25952 6.8539164,250.87231 6.1391736,246.39056 4.8476247,242.15623 2.5426799,234.5995 2.5323873,229.97868 4.8035982,222.39061 c 0.9858701,-3.29377 2.1247181,-8.89506 2.5307734,-12.4473 1.3556739,-11.85968 2.012452,-14.69681 4.8508774,-20.95467 3.710402,-8.1803 4.191025,-9.90962 5.101346,-18.35506 0.423097,-3.92525 1.554279,-10.35382 2.513739,-14.28571 3.188793,-13.06777 6.04891,-35.02258 6.06104,-46.52573 0.0049,-4.64645 0.28843,-6.75335 0.986811,-7.33295 0.797541,-0.66191 0.911701,-3.785041 0.613334,-16.77948 -0.20163,-8.781411 -0.154334,-16.811938 0.105102,-17.845615 l 0.471703,-1.879414 8.022106,0.0047 c 6.768577,0.004 8.354569,0.223852 10.149744,1.40715 1.170201,0.771344 5.188058,2.093493 8.928572,2.93811 6.240173,1.409047 7.049216,1.792556 9.812123,4.651227 2.96424,3.066983 4.032085,5.61609 6.631168,15.829614 0.426194,1.674801 1.75502,4.161389 2.952949,5.525752 4.252978,4.843876 10.929186,5.014976 24.279586,0.62224 l 7.945968,-2.614496 6.65498,0.817848 c 9.32515,1.145992 18.78886,1.039109 22.45273,-0.25358 3.55916,-1.255746 4.28571,-1.319083 4.28571,-0.37361 0,1.420305 -3.40733,2.855495 -8.4911,3.576503 -4.03216,0.571863 -7.39002,0.49131 -14.66436,-0.351789 l -9.4347,-1.093487 -7.00926,2.157585 C 88.209914,102.62837 80.732164,103.14277 75.696043,100.53849 72.625637,98.950718 70.377599,94.838746 68.325152,87.05611 65.344304,75.753088 63.871149,74.203472 54.439679,72.449941 51.886107,71.975173 48.387656,70.769604 46.665343,69.7709 c -2.818699,-1.634456 -3.696376,-1.783123 -8.787085,-1.488427 -3.612784,0.209141 -6.030057,0.701849 -6.692282,1.364074 -0.830867,0.830867 -1.172326,5.498041 -1.71995,23.508834 -0.838485,27.576879 -2.158162,39.820519 -6.473446,60.059049 -1.146129,5.3753 -2.695419,13.77259 -3.442868,18.66064 -1.029292,6.73121 -2.055971,10.51729 -4.231808,15.60564 -3.785563,8.85279 -3.538068,7.8994 -4.853951,18.69828 -0.6901287,5.66358 -2.0202692,12.16566 -3.320477,16.23137 -1.8720083,5.85371 -2.1115474,7.46812 -1.7487187,11.78571 0.2312296,2.7516 1.1037089,7.09218 1.9388428,9.64575 0.9586205,2.93115 1.7277671,7.80293 2.0862485,13.21429 0.3123022,4.71429 0.7942944,9.11816 1.0710924,9.78641 0.276798,0.66823 2.001714,1.79323 3.833147,2.5 3.146196,1.21413 8.254976,1.28063 92.615592,1.20539 108.50786,-0.0968 160.29301,-1.33416 162.81784,-3.89047 0.96351,-0.97552 0.74252,-13.67777 -0.68339,-39.28141 -1.65979,-29.80309 -1.61723,-42.37808 0.17271,-51.03421 0.81237,-3.92857 1.65567,-9.28612 1.87402,-11.90568 l 0.39698,-4.76283 -2.25835,-0.78727 c -4.17053,-1.45385 -5.53556,-3.3938 -5.5217,-7.84729 0.0208,-6.67716 1.79135,-13.32928 4.54688,-17.08307 3.16737,-4.31482 6.11411,-11.81462 8.8852,-22.61386 2.76094,-10.7597 3.96859,-17.754746 3.43337,-19.887205 -0.431,-1.717237 -3.07695,-3.327077 -5.46843,-3.327077 -0.75928,0 -2.67425,-0.517652 -4.25549,-1.150338 -2.42407,-0.969922 -3.17783,-1.810126 -4.80594,-5.357143 l -1.93097,-4.206804 -11.45851,-0.0614 c -13.80594,-0.07397 -12.47416,-1.221393 2.1638,-1.864264 l 9.3366,-0.410046 1.55626,1.978466 c 0.85595,1.088156 1.55626,2.7533 1.55626,3.700319 0,2.52386 2.85793,4.98354 6.49253,5.587805 3.92703,0.652883 6.81399,2.096622 7.77201,3.886693 1.86786,3.490135 -0.31424,16.758334 -5.11654,31.110984 -3.30388,9.87434 -4.36706,12.15712 -5.94373,12.76215 -1.77705,0.68192 -3.75157,6.04491 -4.24269,11.52357 -0.24651,2.75 -0.6002,5.99014 -0.78597,7.20032 -0.32319,2.10546 -0.148,2.2822 4.06383,4.09951 l 4.40158,1.89918 -0.44375,6.25765 c -0.24408,3.4417 -1.00351,8.1862 -1.68765,10.54335 -1.71255,5.90046 -1.53638,36.29284 0.3907,67.40159 0.85385,13.78383 1.18405,23.76788 0.8179,24.73092 -0.33772,0.88827 -1.36805,1.80429 -2.28962,2.03559 -3.39019,0.85088 -43.81293,1.92773 -98.07146,2.61258 -56.39152,0.71178 -154.518465,0.84219 -157.142853,0.20885 z"
       id="path81"
       inkscape:connector-curvature="0"
       transform="matrix(0.26458333,0,0,0.26458333,-161.24436,-173.69654)" />
    <path
       style="fill:#00ffff;stroke-width:0.71428573"
       d="m 128.03382,124.98255 c -0.0229,-0.64941 9.83564,-16.4264 12.28933,-19.66714 0.72488,-0.95739 2.90713,-2.81091 4.84946,-4.11895 1.95766,-1.318368 3.71771,-3.120215 3.94935,-4.043129 0.25237,-1.005538 -0.32138,-3.476042 -1.44878,-6.238192 -1.02665,-2.515323 -2.06311,-5.982828 -2.30325,-7.705566 -0.35054,-2.514843 -0.85499,-3.359614 -2.55916,-4.285715 -3.90973,-2.12467 -6.22823,-4.438977 -6.22823,-6.216958 0,-2.547302 1.68249,-2.106169 3.83974,1.006744 3.79729,5.479494 7.15384,6.992224 12.23638,5.51469 4.83412,-1.405316 31.54785,-13.525516 33.2939,-15.105662 1.67653,-1.517241 1.79441,-6.394997 0.27554,-11.401204 -1.49293,-4.9207 -1.9707,-5.451072 -4.91044,-5.451072 -2.64935,0 -3.44348,-0.806231 -1.52084,-1.544019 2.45981,-0.943916 0.47048,-6.137684 -2.37245,-6.194031 -1.71646,-0.03402 1.71953,-2.833379 3.47776,-2.833379 0.94928,0 1.36509,-0.631718 1.52801,-2.321429 0.13009,-1.349286 0.58735,-2.250107 1.0919,-2.151116 0.47745,0.09367 1.67841,-0.137772 2.6688,-0.51432 1.59176,-0.605183 1.79839,-0.500611 1.78062,0.901116 -0.0111,0.872162 0.23912,2.871463 0.55595,4.442892 0.55155,2.735566 0.71239,2.874359 3.77988,3.261746 1.7621,0.222531 4.81096,0.935828 6.77525,1.585103 1.96428,0.649276 4.99197,1.43149 6.72819,1.738254 1.73623,0.306765 3.26866,0.896121 3.40541,1.30968 0.13675,0.41356 -1.69516,1.845261 -4.07091,3.181558 -7.91939,4.454452 -8.07135,5.762607 -1.55478,13.384375 6.26732,7.330243 8.01132,9.834755 8.77544,12.602143 1.29552,4.691991 2.04025,4.982603 11.4694,4.475602 7.04969,-0.379058 8.55257,-0.273948 9.49027,0.663742 0.61276,0.612768 1.11412,1.405998 1.11412,1.762733 0,0.663659 -15.10292,11.54872 -16.64647,11.99753 -0.46944,0.136499 0.83397,-1.340166 2.89647,-3.281478 4.03705,-3.799844 4.35161,-4.506778 2.63808,-5.928872 -0.91375,-0.758348 -2.02759,-0.708655 -6.25,0.278837 -2.82594,0.660904 -7.1151,1.197523 -9.53144,1.192488 -3.19691,-0.0066 -5.43391,0.475248 -8.21428,1.769581 -3.60868,1.679929 -4.51171,1.779124 -16.25635,1.785714 l -12.43542,0.007 -4.14942,3.957879 c -4.14204,3.95083 -7.22933,5.645558 -16.72559,9.181265 l -5.03156,1.8734 -7.40186,9.65321 c -4.07102,5.30927 -7.82338,10.20824 -8.33857,10.88659 -0.5152,0.67835 -0.94695,0.94313 -0.95945,0.58838 z"
       id="path83"
       inkscape:connector-curvature="0"
       transform="matrix(0.26458333,0,0,0.26458333,-161.24436,-173.69654)" />
    <path
       style="fill:#00ffff;stroke-width:0.17857143"
       d="m 164.02172,41.536053 c -2.94157,-0.586995 -6.42858,-2.17113 -6.42858,-2.920476 0,-0.07482 0.35269,-0.30738 0.78375,-0.516804 0.43106,-0.209424 1.07152,-0.633444 1.42325,-0.942267 0.35341,-0.310298 0.73069,-0.505139 0.84333,-0.435523 0.11211,0.06929 0.38904,0.544751 0.6154,1.05659 0.4695,1.061627 1.25903,1.92263 2.20606,2.40577 0.35857,0.18293 1.555,0.548529 2.65873,0.812442 1.10373,0.263913 1.96151,0.553104 1.90617,0.642646 -0.14445,0.233723 -2.64375,0.169884 -4.00811,-0.102378 z"
       id="path85"
       inkscape:connector-curvature="0"
       transform="matrix(0.26458333,0,0,0.26458333,-161.24436,-173.69654)" />
    <path
       style="fill:#00ffff;stroke-width:0.17857143"
       d="m 181.27478,26.667307 c -0.0508,-0.171875 -0.22269,-1.468367 -0.3819,-2.881092 -0.31576,-2.801822 -0.9098,-5.139138 -1.65897,-6.52746 -0.61691,-1.143232 -2.30356,-2.951231 -3.42369,-3.670012 -0.48111,-0.308729 -1.82355,-0.99793 -2.98319,-1.531559 l -2.10845,-0.970234 h 1.62912 c 2.46147,0 3.82494,-0.61933 4.84713,-2.2017319 l 0.48106,-0.744697 0.13229,1.67848 c 0.14259,1.8092269 0.4949,3.2443059 1.07713,4.3875739 0.99068,1.945274 2.09718,2.733834 4.06794,2.899055 0.86087,0.07217 1.31088,0.189919 1.37618,0.360084 0.0534,0.139064 -0.22963,0.950464 -0.62889,1.803111 -0.88581,1.891761 -1.51021,3.870034 -1.91244,6.059196 -0.16692,0.908482 -0.3299,1.651786 -0.36219,1.651786 -0.0323,0 -0.10029,-0.140625 -0.15113,-0.3125 z"
       id="path87"
       inkscape:connector-curvature="0"
       transform="matrix(0.26458333,0,0,0.26458333,-161.24436,-173.69654)" />
    <path
       style="fill:#00ffff;stroke-width:0.17857143"
       d="m 154.07532,36.335976 c -2.13703,-2.88705 -4.67937,-7.244994 -5.50073,-9.429054 -0.59467,-1.581275 -0.5523,-2.441436 0.13204,-2.680638 0.40833,-0.142728 0.56601,-0.09931 0.96105,0.264605 0.58897,0.542566 1.13065,1.690371 1.13583,2.406757 0.011,1.51674 0.98495,4.075541 2.90144,7.622481 0.78146,1.446284 1.38953,2.723524 1.35127,2.838313 -0.0383,0.114788 -0.47967,-0.34532 -0.9809,-1.022464 z"
       id="path89"
       inkscape:connector-curvature="0"
       transform="matrix(0.26458333,0,0,0.26458333,-161.24436,-173.69654)" />
  </g>
</svg>
