<?xml version="1.0" encoding="UTF-8" standalone="no"?>
<!-- Created with Inkscape (http://www.inkscape.org/) -->

<svg
   xmlns:dc="http://purl.org/dc/elements/1.1/"
   xmlns:cc="http://creativecommons.org/ns#"
   xmlns:rdf="http://www.w3.org/1999/02/22-rdf-syntax-ns#"
   xmlns:svg="http://www.w3.org/2000/svg"
   xmlns="http://www.w3.org/2000/svg"
   xmlns:sodipodi="http://sodipodi.sourceforge.net/DTD/sodipodi-0.dtd"
   xmlns:inkscape="http://www.inkscape.org/namespaces/inkscape"
   version="1.1"
   id="svg815"
   width="2824"
   height="1768"
   viewBox="0 0 2824 1768"
   sodipodi:docname="VECTOR SPLIOTTER3.svg"
   inkscape:version="0.92.5 (2060ec1f9f, 2020-04-08)">
  <metadata
     id="metadata821">
    <rdf:RDF>
      <cc:Work
         rdf:about="">
        <dc:format>image/svg+xml</dc:format>
        <dc:type
           rdf:resource="http://purl.org/dc/dcmitype/StillImage" />
        <dc:title></dc:title>
      </cc:Work>
    </rdf:RDF>
  </metadata>
  <defs
     id="defs819" />
  <sodipodi:namedview
     pagecolor="#ffffff"
     bordercolor="#666666"
     borderopacity="1"
     objecttolerance="10"
     gridtolerance="10"
     guidetolerance="10"
     inkscape:pageopacity="0"
     inkscape:pageshadow="2"
     inkscape:window-width="1920"
     inkscape:window-height="1017"
     id="namedview817"
     showgrid="false"
     inkscape:zoom="0.34595439"
     inkscape:cx="562.91917"
     inkscape:cy="654.25714"
     inkscape:window-x="-8"
     inkscape:window-y="-8"
     inkscape:window-maximized="1"
     inkscape:current-layer="svg815" />
  <path
     style="opacity:1;stroke:none;fill-opacity:1;stroke-width:1.9245888;fill:#00ff00"
     d="M978.4169 713.91691C943.0911 682.00017 889.8851 669.41573 842.99007 667.8973C800.27072 663.30956 768.38575 596.56827 717.39785 631.48797C696.86858 636.3412 659.24433 650.31872 703.14558 658.13074C728.38492 667.70745 791.23368 676.19207 765.92794 708.17142C746.08159 708.15842 726.23524 708.14542 706.38889 708.13242C677.07838 670.50115 632.94556 656.31612 587.95542 647.22903C541.84656 654.64449 514.0384 625.08707 480.15488 601.83346C452.88266 595.4007 389.19391 582.92112 425.92856 550.35848C449.02672 550.35848 472.12488 550.35848 495.22304 550.35848C513.46768 530.8155 528.47666 503.88817 558.78063 511.86671C559.11693 490.45755 591.46543 504.18571 607.06483 500.31918C619.39009 477.82622 629.44385 451.32264 659.36797 459.90281C681.55147 453.22337 669.89441 480.38447 672.70859 493.07435C656.35041 513.61502 580.0793 530.6227 640.20714 549.47681C675.49669 551.97845 685.91931 607.55295 641.23561 592.68468C614.98735 585.40944 603.49327 529.18123 564.19984 559.26407C550.02205 567.68707 475.2333 580.66803 526.18431 592.21693C574.9114 607.04178 647.96755 639.26058 686.79657 595.79245C698.05234 571.13167 721.73756 574.9163 743.97087 575.37815C761.56676 572.43237 785.07971 583.31684 796.21656 565.27405C805.6145 537.1926 841.12703 538.76067 851.13704 528.33529C877.27573 519.94231 912.6038 529.17404 920.77867 489.71873C929.59866 481.27825 956.29364 483.84542 965.24606 487.47409C972.6205 517.84294 955.13032 533.60957 926.29273 542.64346C867.05553 571.79561 984.5047 569.81225 963.24673 615.19473C912.52291 644.90167 906.78673 547.44494 854.61295 584.5443C834.82762 593.33827 765.83116 608.34844 821.45922 618.27464C853.44903 628.625 885.11929 642.92899 919.44916 638.88956C936.41352 635.87326 959.21832 646.81184 970.1021 629.2666C985.4013 607.12134 1004.9715 595.18108 1031.7222 600.39779C1044.6621 603.55304 1073.0593 591.25096 1067.2493 613.15607C1077.8973 647.66397 1034.1571 643.16692 1012.9102 655.0252C991.7264 661.33999 951.4243 673.238 994.5543 682.92544C1017.6851 689.76495 1040.3866 697.94127 1063.4 705.18121C1065.0902 723.01516 1065.8418 739.90966 1042.9868 733.17417C1026.9905 730.54863 1006.7127 738.74062 993.799 728.32711C988.6716 723.52374 983.5441 718.72042 978.4169 713.91692C978.4169 713.91692 978.4169 713.91693 978.4169 713.91693"
     id="path833" />
  <path
     style="opacity:1;stroke:none;fill-opacity:1;stroke-width:1.53879285;fill:#aa0000"
     d="M1197.8986 961.77149C1186.7497 942.52275 1179.4143 887.29292 1166.318 889.946C1157.6549 913.04657 1150.3647 936.62727 1142.512 960.00908C1130.0412 960.23262 1114.3329 963.6937 1120.0514 945.72794C1120.9969 933.13009 1118.1489 919.0416 1121.4402 907.36547C1133.4913 891.86567 1153.101 880.71369 1155.8323 859.85299C1163.6259 833.23693 1175.6901 807.53497 1172.3703 779.17094C1170.505 759.42405 1196.0646 751.24562 1202.8569 734.21613C1210.7617 719.93421 1212.1985 704.97756 1204.0991 690.68396C1197.8761 670.68204 1187.3034 630.96376 1179.6159 673.80884C1173.7243 691.18682 1168.1697 708.67654 1162.4534 726.1126C1149.9898 726.34996 1134.3425 729.77093 1140.0557 711.83148C1141.0 699.20518 1138.1559 685.08964 1141.445 673.38511C1153.4274 657.99665 1172.8915 646.92315 1175.602 626.18726C1183.225 599.28179 1195.5131 573.86364 1192.3746 545.39783C1189.7894 529.57092 1207.9117 521.81565 1215.6621 510.01752C1229.2483 496.45075 1228.5233 474.62937 1236.1673 457.68801C1231.1839 433.06837 1275.5326 437.68445 1266.2367 459.11057C1267.234 474.6448 1264.2409 491.89509 1267.7175 506.36306C1277.5038 516.9944 1291.2306 525.93112 1298.5513 537.62274C1295.3187 551.70637 1301.2585 556.59394 1307.7941 560.9257C1309.0405 572.63263 1305.4609 587.08951 1309.6336 597.12896C1318.3302 604.77183 1335.6184 607.53301 1338.5598 618.44599C1335.4755 627.13127 1345.3634 648.78873 1332.4393 647.63417C1319.1743 648.10016 1304.7034 650.61784 1301.7593 633.56556C1292.8022 616.83443 1279.7477 583.19057 1269.5095 617.18089C1261.2523 626.87643 1260.8543 648.88951 1244.5033 645.73903C1226.7847 652.1413 1233.5165 633.08234 1232.3832 622.21358C1231.2842 603.6906 1263.7696 604.0556 1265.7458 585.20911C1259.8251 560.95251 1250.3888 529.52384 1239.0601 512.1518C1231.3693 537.79133 1219.3317 563.07839 1215.4565 589.48503C1215.8183 608.43101 1214.4257 627.55832 1216.9292 646.35185C1226.3437 659.45463 1250.2987 667.28802 1246.2323 686.47831C1247.2309 703.86684 1244.2484 722.93036 1247.6909 739.29063C1257.3837 750.27903 1271.2932 759.49325 1278.547 771.50789C1275.3945 785.52989 1281.108 790.47628 1287.7776 794.82117C1289.2479 806.47383 1285.9663 820.91479 1290.3078 830.8826C1298.4514 838.24631 1315.3871 840.43193 1317.8891 851.11816C1315.0815 860.258 1325.4015 882.19836 1312.5358 881.53064C1301.3615 880.78353 1286.6477 886.06644 1283.9705 870.84287C1273.7533 854.47879 1260.2953 813.72255 1249.3099 851.76874C1250.0992 869.56709 1214.8371 895.15379 1212.3789 871.83118C1212.3539 859.25197 1209.0062 844.91162 1224.1983 840.39898C1262.3296 826.92914 1236.027 788.89546 1228.2861 763.17009C1218.4126 722.69132 1209.485 780.64998 1202.2953 796.64592C1190.6299 822.28873 1197.0672 850.80998 1195.4521 878.05086C1205.1528 888.78239 1218.9871 897.74773 1226.2279 909.53033C1226.2279 927.38244 1226.2279 945.23455 1226.2279 963.08666C1216.7978 962.79238 1207.1608 963.94316 1197.8986 961.77149C1197.8986 961.77149 1197.8986 961.77149 1197.8986 961.77149"
     id="path835" />
  <path
     style="opacity:1;stroke:none;fill-opacity:1;stroke-width:1.53879285;fill:#ff00ff"
     d="M475.64523 841.81593C493.77861 828.93215 548.09162 816.51284 544.23695 803.71857C520.4333 797.2323 496.27873 792.15751 472.27011 786.50421C470.89247 774.10772 465.99135 758.78751 484.40954 762.81742C497.04081 762.59203 510.80495 758.45139 522.73573 760.64708C539.28509 771.21078 552.2054 789.70327 573.22941 790.4907C600.45291 795.78559 627.16179 805.41739 655.09641 799.48476C674.58565 795.7985 685.09628 820.49073 702.68167 825.67652C717.63435 832.22453 732.65975 832.26986 746.14175 822.88139C765.48135 814.83254 804.04965 800.62657 760.67665 796.94047C742.82775 792.68376 724.89875 788.77295 707.00815 784.69617C705.61745 772.30813 700.7619 757.04494 719.15335 761.07201C731.81285 760.8428 745.60435 756.70353 757.56315 758.8944C773.99535 769.4 786.82395 787.75479 807.72185 788.53306C835.21765 793.63129 861.66465 803.51231 889.71745 797.75077C905.23685 793.71078 914.63735 811.03685 927.10255 817.66118C941.86945 829.93241 963.52985 827.18941 981.10635 833.23143C1005.1586 825.98915 1004.6699 870.57476 982.47495 863.30333C967.09985 865.73514 949.64655 864.35264 935.56275 869.15434C925.88355 879.88325 918.25665 894.37878 907.29335 902.7509C892.97085 900.83663 888.65435 907.20359 884.94655 914.11231C873.40545 916.43766 858.67915 914.21246 849.06935 919.29708C842.26475 928.66419 841.11675 946.13382 830.52315 950.07335C821.58945 947.80674 800.94095 959.65808 800.89355 946.68259C799.20095 933.51777 795.35375 919.34227 812.06005 914.83143C827.88965 904.36317 860.17975 888.24866 825.38725 881.20269C814.96865 873.87899 793.01325 875.52158 794.63575 858.94906C786.61995 841.89961 806.22045 846.83721 816.93755 844.70211C835.27905 841.89222 837.92445 874.27178 856.87305 874.49391C880.47695 866.35199 910.89655 854.0453 927.14465 841.15628C900.90295 835.8733 874.60965 826.22955 847.95765 824.81682C829.12655 826.93186 809.95255 827.31684 791.47165 831.55025C779.29715 842.13788 773.71615 866.71544 754.23175 864.44394C737.01045 867.04879 717.75265 865.84479 701.78156 870.7878C691.73815 881.45669 683.85185 896.15983 672.56071 904.49526C658.30699 902.65504 653.91105 908.80212 650.20259 915.84548C638.7362 918.38874 624.05337 916.45878 614.53052 921.70485C607.95273 930.49548 607.34511 947.56081 596.93655 951.04183C587.57595 949.09284 566.68576 961.40061 566.15897 948.52837C565.8679 937.33291 559.24489 923.17166 574.15505 919.09595C589.50246 907.40701 628.83702 890.23198 589.93689 882.81768C572.28816 885.25208 543.54543 852.51142 566.54011 847.90363C579.06293 846.71364 593.03157 842.05211 598.93192 856.76094C615.87562 893.48074 651.30963 863.76849 676.20745 853.67815C715.59775 840.09791 657.06132 836.57688 640.46823 830.89964C613.85519 821.65948 586.05276 830.71077 558.77939 831.62569C548.99247 842.27863 541.34702 856.88384 530.28572 865.18483C512.51035 866.83831 494.73497 868.49179 476.9596 870.14527C476.37919 860.72845 474.34077 851.23946 475.64523 841.81593C475.64523 841.81593 475.64523 841.81593 475.64523 841.81593"
     id="path835-0" />
  <path
     style="opacity:1;stroke:none;fill-opacity:1;stroke-width:1.53879285;fill:#ffcc00"
     d="M297.82902 473.54704C311.50768 491.08854 326.3337 544.79454 338.94362 540.37384C344.3632 516.30494 348.35714 491.94834 352.93551 467.71174C365.25835 465.78334 380.34505 460.20474 377.13948 478.78414C377.92724 491.39284 382.67677 504.95894 381.01464 516.97564C371.19851 533.97904 353.29992 547.71014 353.44959 568.74844C349.37246 596.18074 340.9398 623.29214 348.1108 650.93474C352.66137 670.24044 328.46181 681.84044 324.06439 699.63934C318.18887 714.86884 318.81283 729.88134 328.79239 742.93184C337.69467 761.89374 353.60436 799.79104 355.35501 756.29694C358.81252 738.27614 361.9209 720.19074 365.19682 702.13634C377.51059 700.19524 392.54238 694.66474 389.33841 713.21724C390.13123 725.85404 394.88068 739.44744 393.22459 751.49194C383.46129 768.37574 365.69607 782.00914 365.84942 802.92094C361.98081 830.61654 353.28754 857.47744 360.29287 885.24574C365.01998 900.56984 348.12986 910.73264 342.06722 923.48054C330.46591 938.77934 334.17092 960.29604 328.91775 978.12424C337.22413 1001.83 292.66101 1003.3276 298.93665 980.83084C295.82247 965.57934 296.42625 948.08174 291.00203 934.22574C279.85268 925.03404 265.03177 918.06034 256.17968 907.48084C257.45417 893.08724 250.90124 889.05864 243.83425 885.66224C240.99723 874.23614 242.56433 859.42534 237.05666 850.05154C227.39579 843.67084 209.89239 843.30214 205.48497 832.89444C207.35142 823.86874 194.59212 803.76854 207.55263 803.14324C220.62908 800.86604 234.61916 796.39124 239.86957 812.88004C251.03252 828.22774 268.5692 859.76804 274.05848 824.69624C280.91088 813.96184 278.29204 792.10134 294.92045 792.98414C311.59592 784.21694 307.53621 804.01784 310.14652 814.62924C313.77054 832.82734 281.5409 836.91234 282.16297 855.85204C291.34808 879.06984 304.99743 908.91114 318.59732 924.56904C322.70629 898.11804 331.16944 871.42134 331.39369 844.73284C328.44207 826.01464 327.20346 806.87684 322.15114 788.60284C311.0317 776.91194 286.23002 772.43114 287.63145 752.86494C284.26212 735.77674 284.6072 716.48444 278.95777 700.74934C267.85213 691.19104 252.81237 683.96744 243.98235 673.05884C245.18587 658.73724 238.84908 654.61944 231.6475 651.22834C228.59612 639.88664 229.87015 625.13244 224.20522 615.85264C215.13027 609.67294 198.05484 609.82604 194.11371 599.58284C195.64387 590.14474 182.41785 569.82344 195.25391 568.72384C206.42524 567.93444 220.2775 560.68724 225.01324 575.40104C237.3741 590.21264 256.28398 628.74324 261.95835 589.55144C258.74031 572.02864 290.16834 541.85624 295.79573 564.62284C297.54231 577.08024 302.82133 590.82744 288.38992 597.37704C252.46122 615.93934 283.72213 650.01484 294.91144 674.43854C310.23257 713.18494 311.14292 654.54974 316.07555 637.72024C324.12116 610.72214 313.84065 583.35044 311.71182 556.14484C300.6336 546.84214 285.70237 539.85474 276.91695 529.17414C274.47339 511.49004 272.02983 493.80594 269.58638 476.12184C278.96798 475.12264 288.35677 472.66354 297.82902 473.54704C297.82902 473.54704 297.82902 473.54704 297.82902 473.54704"
     id="path835-0-1" />
</svg>
